<mxfile host="app.diagrams.net" agent="Mozilla/5.0 (Macintosh; Intel Mac OS X 10_15_7) AppleWebKit/537.36 (KHTML, like Gecko) Chrome/138.0.0.0 Safari/537.36" version="28.0.7">
  <diagram name="Page-1" id="TYkzfeQkSj-TrwNHeRS8">
    <mxGraphModel dx="3789" dy="1480" grid="1" gridSize="10" guides="1" tooltips="1" connect="1" arrows="1" fold="1" page="1" pageScale="1" pageWidth="1169" pageHeight="827" background="light-dark(#000000,#000000)" math="0" shadow="0">
      <root>
        <mxCell id="0" />
        <mxCell id="1" parent="0" />
        <mxCell id="3H0iRvBN5fyzFn5Ot1tH-99" value="" style="whiteSpace=wrap;html=1;" vertex="1" parent="1">
          <mxGeometry x="-170" y="600" width="1300" height="880" as="geometry" />
        </mxCell>
        <mxCell id="VJ01svG1hFMq5krCHa-V-16" style="edgeStyle=orthogonalEdgeStyle;rounded=0;orthogonalLoop=1;jettySize=auto;html=1;exitX=1;exitY=0.5;exitDx=0;exitDy=0;exitPerimeter=0;" parent="1" source="VJ01svG1hFMq5krCHa-V-4" edge="1">
          <mxGeometry relative="1" as="geometry">
            <mxPoint x="270" y="945.1176470588236" as="targetPoint" />
          </mxGeometry>
        </mxCell>
        <mxCell id="VJ01svG1hFMq5krCHa-V-4" value="" style="shape=cylinder3;whiteSpace=wrap;html=1;boundedLbl=1;backgroundOutline=1;size=15;" parent="1" vertex="1">
          <mxGeometry x="-50" y="910" width="60" height="70" as="geometry" />
        </mxCell>
        <mxCell id="3H0iRvBN5fyzFn5Ot1tH-8" style="edgeStyle=orthogonalEdgeStyle;rounded=0;orthogonalLoop=1;jettySize=auto;html=1;exitX=1;exitY=0.75;exitDx=0;exitDy=0;exitPerimeter=0;entryX=0;entryY=0.25;entryDx=0;entryDy=0;" edge="1" parent="1" source="VJ01svG1hFMq5krCHa-V-9" target="VJ01svG1hFMq5krCHa-V-17">
          <mxGeometry relative="1" as="geometry">
            <Array as="points">
              <mxPoint x="200" y="935" />
            </Array>
          </mxGeometry>
        </mxCell>
        <mxCell id="3H0iRvBN5fyzFn5Ot1tH-24" style="edgeStyle=orthogonalEdgeStyle;rounded=0;orthogonalLoop=1;jettySize=auto;html=1;exitX=1;exitY=0.25;exitDx=0;exitDy=0;exitPerimeter=0;entryX=0;entryY=0.5;entryDx=0;entryDy=0;" edge="1" parent="1" source="VJ01svG1hFMq5krCHa-V-9" target="3H0iRvBN5fyzFn5Ot1tH-18">
          <mxGeometry relative="1" as="geometry">
            <Array as="points">
              <mxPoint x="230" y="735" />
              <mxPoint x="230" y="685" />
            </Array>
          </mxGeometry>
        </mxCell>
        <mxCell id="3H0iRvBN5fyzFn5Ot1tH-53" style="edgeStyle=orthogonalEdgeStyle;rounded=0;orthogonalLoop=1;jettySize=auto;html=1;exitX=1;exitY=0.5;exitDx=0;exitDy=0;exitPerimeter=0;" edge="1" parent="1" source="VJ01svG1hFMq5krCHa-V-9">
          <mxGeometry relative="1" as="geometry">
            <mxPoint x="870" y="920" as="targetPoint" />
            <Array as="points">
              <mxPoint x="200" y="790" />
              <mxPoint x="840" y="790" />
              <mxPoint x="840" y="920" />
              <mxPoint x="870" y="920" />
            </Array>
          </mxGeometry>
        </mxCell>
        <mxCell id="3H0iRvBN5fyzFn5Ot1tH-106" style="edgeStyle=orthogonalEdgeStyle;rounded=0;orthogonalLoop=1;jettySize=auto;html=1;exitX=0;exitY=0.25;exitDx=0;exitDy=0;exitPerimeter=0;entryX=1.001;entryY=0.031;entryDx=0;entryDy=0;entryPerimeter=0;" edge="1" parent="1" target="3H0iRvBN5fyzFn5Ot1tH-99">
          <mxGeometry relative="1" as="geometry">
            <mxPoint x="1170" y="630" as="targetPoint" />
            <mxPoint x="163.7" y="720" as="sourcePoint" />
            <Array as="points">
              <mxPoint x="144" y="720" />
              <mxPoint x="144" y="545" />
              <mxPoint x="1154" y="545" />
              <mxPoint x="1154" y="627" />
            </Array>
          </mxGeometry>
        </mxCell>
        <mxCell id="VJ01svG1hFMq5krCHa-V-9" value="" style="sketch=0;points=[[0,0,0],[0.25,0,0],[0.5,0,0],[0.75,0,0],[1,0,0],[0,1,0],[0.25,1,0],[0.5,1,0],[0.75,1,0],[1,1,0],[0,0.25,0],[0,0.5,0],[0,0.75,0],[1,0.25,0],[1,0.5,0],[1,0.75,0]];outlineConnect=0;fontColor=#232F3E;fillColor=#C925D1;strokeColor=#ffffff;dashed=0;verticalLabelPosition=bottom;verticalAlign=top;align=center;html=1;fontSize=12;fontStyle=0;aspect=fixed;shape=mxgraph.aws4.resourceIcon;resIcon=mxgraph.aws4.database_migration_service;" parent="1" vertex="1">
          <mxGeometry x="140" y="720" width="60" height="60" as="geometry" />
        </mxCell>
        <mxCell id="VJ01svG1hFMq5krCHa-V-10" style="edgeStyle=orthogonalEdgeStyle;rounded=0;orthogonalLoop=1;jettySize=auto;html=1;exitX=1;exitY=0;exitDx=0;exitDy=25;exitPerimeter=0;entryX=0;entryY=0.5;entryDx=0;entryDy=0;entryPerimeter=0;" parent="1" source="VJ01svG1hFMq5krCHa-V-4" target="VJ01svG1hFMq5krCHa-V-9" edge="1">
          <mxGeometry relative="1" as="geometry">
            <Array as="points">
              <mxPoint x="40" y="935" />
              <mxPoint x="40" y="750" />
            </Array>
          </mxGeometry>
        </mxCell>
        <mxCell id="VJ01svG1hFMq5krCHa-V-12" value="Provide Config" style="text;html=1;align=center;verticalAlign=middle;resizable=0;points=[];autosize=1;strokeColor=none;fillColor=none;" parent="1" vertex="1">
          <mxGeometry x="40" y="720" width="100" height="30" as="geometry" />
        </mxCell>
        <mxCell id="VJ01svG1hFMq5krCHa-V-13" value="Data&amp;nbsp;&lt;div&gt;Ingestion Job&lt;/div&gt;" style="text;html=1;align=center;verticalAlign=middle;resizable=0;points=[];autosize=1;strokeColor=none;fillColor=none;" parent="1" vertex="1">
          <mxGeometry x="120" y="780" width="90" height="40" as="geometry" />
        </mxCell>
        <mxCell id="3H0iRvBN5fyzFn5Ot1tH-9" style="edgeStyle=orthogonalEdgeStyle;rounded=0;orthogonalLoop=1;jettySize=auto;html=1;exitX=1;exitY=0.75;exitDx=0;exitDy=0;" edge="1" parent="1" source="VJ01svG1hFMq5krCHa-V-17">
          <mxGeometry relative="1" as="geometry">
            <mxPoint x="440" y="1220" as="targetPoint" />
            <Array as="points">
              <mxPoint x="400" y="965" />
              <mxPoint x="400" y="1220" />
            </Array>
          </mxGeometry>
        </mxCell>
        <mxCell id="3H0iRvBN5fyzFn5Ot1tH-33" style="edgeStyle=orthogonalEdgeStyle;rounded=0;orthogonalLoop=1;jettySize=auto;html=1;exitX=1;exitY=0.25;exitDx=0;exitDy=0;" edge="1" parent="1" source="VJ01svG1hFMq5krCHa-V-17">
          <mxGeometry relative="1" as="geometry">
            <mxPoint x="870" y="935.3076923076922" as="targetPoint" />
          </mxGeometry>
        </mxCell>
        <mxCell id="3H0iRvBN5fyzFn5Ot1tH-101" style="edgeStyle=orthogonalEdgeStyle;rounded=0;orthogonalLoop=1;jettySize=auto;html=1;exitX=0;exitY=0.75;exitDx=0;exitDy=0;entryX=1.002;entryY=0.855;entryDx=0;entryDy=0;entryPerimeter=0;" edge="1" parent="1" source="VJ01svG1hFMq5krCHa-V-17" target="3H0iRvBN5fyzFn5Ot1tH-99">
          <mxGeometry relative="1" as="geometry">
            <mxPoint x="1191" y="1460" as="targetPoint" />
            <Array as="points">
              <mxPoint x="200" y="965" />
              <mxPoint x="200" y="1540" />
              <mxPoint x="1191" y="1540" />
              <mxPoint x="1191" y="1353" />
            </Array>
          </mxGeometry>
        </mxCell>
        <mxCell id="VJ01svG1hFMq5krCHa-V-17" value="" style="shape=image;verticalLabelPosition=bottom;labelBackgroundColor=default;verticalAlign=top;aspect=fixed;imageAspect=0;image=data:image/png,iVBORw0KGgoAAAANSUhEUgAAAOEAAADhCAIAAACx0UUtAAAAAXNSR0IArs4c6QAAAERlWElmTU0AKgAAAAgAAYdpAAQAAAABAAAAGgAAAAAAA6ABAAMAAAABAAEAAKACAAQAAAABAAAA4aADAAQAAAABAAAA4QAAAAAYn8bHAAAs/ElEQVR4Ae2dB7wVRbL/C8k5SRYEEURAwICgqCiKumZMKBhwQWXVXcPb535c39u/6+rbXT8uJsyiois8MCdUWFFcUMQABjKIKJKjZBH5f/vO5dw5NXPmzMyZc8+B1/W5H5ie093TU/2b6urq6uoKd5+9SyxZDhQxB/Yp4rbZplkOGA5YjFocFDsHLEaLvYds+yxGLQaKnQMWo8XeQ7Z9FqMWA8XOAYvRYu8h2z6LUYuBYueAxWix95Btn8WoxUCxc8BitNh7yLbPYtRioNg5YDFa7D1k22cxajFQ7BywGC32HrLtsxi1GCh2DliMFnsP2fZZjFoMFDsHLEaLvYds+yxGLQaKnQMWo8XeQ7Z9FqMWA8XOAYvRYu8h2z6LUYuBYueAxWix95Btn8WoxUCxc8BitNh7yLbPYtRioNg5YDFa7D1k22cxajFQ7BywGC32HrLtq2RZkCcO/PKzqXjXLqlQQSrsY/4sxeOAxWg8vvmXApc7f5Kft0rFqlJ/f6nZUKpUl5+2yoalsuF7kQrmfqWqFq/+3Mt012I0E2ei3QeaOzZLwwPliHPlgEOlQXOf4ssWyOzJ8uUbsnm1VKkl+1je+zDJ51YFG2vchytRbu36RbaukQ6nyPGDpFGrUCXnfyLvPiJrF0nVOqHy/x/PZL/lnACA+KxYRYaMlGYHRqinXXfh79M3Zfw/jEC1qmow76wmH8yfoF93bJEmHeT6sdEAmqrxiNPlyqcFMezMrlL37YXigMWoYkjYJABte4xcPkwqVQlbxJsP3eB3Y6V6PQtTL2/K7lh9tIwX4a8Y4pGgADQTrV0q382UDStl5w6pWkPqN5c2XaV6bf/sWzfKgwPNT3bQ92WQ1Ud92RJ0k9GZKfnAv/nnQcucOlrWLZJK1aVCxdI8v+yQndulVQ85+mKjiSoCuwOHyYgrpHpD9YtNGg5UPLnDbZYTkTiwfb0MuEfqN9OFVn0njw+WORON3Z6ZEHOpipVL/7CJVq4pm1YZw9Pi2dKpt+yzG75OLbUbyM/7yPefm/yWFAesPqoYkiXJKH/g8dKqk87GyP7oQNmxzZiTMg3ZSN9q9WXZ1zJ8gDC+K+ozSCrXMFMoS4oDFqOKIVmSP22UvlfrPEjQZ681+Atjlke+svL06BW6EtK9rxSmYpYUByxGFUOCkhiJWnb3WUN65ndB4tNbIwP6to3y8t/1L9362gm+5glpi1EfpmS69fM2OexM/eOUsfLTpozju869O125unz9mrA66ibMWB1/ZVb8Lbk5YDHq5kaWa+Rom246z9RRRo+MQVXrygfP6nIHHmkxqnliMao5kinNbIb5UK36ab9/M122rY8sRJ0qUEwXvC8/p0vNFgcZK5UlNwcsRt3cCLoGo408i/LfzzLudvGpgqxYlFa6zr7GsGrJzQGLUTc3gq7BaIOWOsPaJdrSqXMEprEDYBNwEypptTrWAuVmiZ0zpXEjS8JrYN+6wXguxyYsqWqsp6pK1WLXt3cWtHI0Qr+y+K6oel22g6h7EZK+FnusB5bcHLAYdXMj6BqZt36ZzlCrofyyU98MnwajdRunZUesYuG35OaAxaibG0HXYHTlPJ2hRQfBXyQ2UVY5R2/bLD/9GNNQELsZRV7QYjRsB4FRzExqnb3tYfHxhLW1WVdtzMKqv491K0nvE4vRdH4EppiGL/oiLQe+oZ1Plx2xRmdWp466KK02Et/OsHMmzROLUc2RgDSm0K8m6N9Pvlp2bNI3s6YRog3bSsdjdMbpr4RyTNHF9uq0xWiE7sX2NH+i8a53E6L0nDvM1tDwxFQJ/6lL7tYl2C/K3nyUCktuDlh+uLmR/bpKbZn4lM52yAlywm9lyyp93zcNQLetk0sf0poomdnQHG/p3/dBe81Ni9FoXcki+6xx2l+JKnpdKGfeJtt/zOIRgg7KStLVz/l4SX/1nqxZaAd6n+6we+58mBJ8C0EIzq4b5bMjdNM6mfCYcbpjzR00p0ZtijiW+V6DpXfJ9jr1CMwF951vw+worpQm7Z47f74E3yUYzub12vxOEbyi+v1BTr1G5k6VRZ/LhhKbP0htdIC07uYzQ0o9ZdQtRoKmMJ26by/ggMVoZBigTZ77Vx+Apipinyce9fyFpFF/lFXzBa/nciAkuvnbvX67R8T0sxiNBgxMoZ3OCJKI0aoTGXGdrJqX96mSUTa2G89UtqfWaSp1mkjlEs+VbZtMTL8fl5pWG/2kKJcPLEYjgIqerlbbjOYJUtdfyfhZCdanq6LN7OPDsnv4BdL5eL306uTevsVErJjxlsx7VypWKyeJrhuaOW3nTJl54/kFIyhTcm9wvEcGS9uecsLlPrMoTx0+N+4933jo5UMZBZ14ox5/dVjFA7BOfVmmjCgumWpjQPiAxvcWdqUTb5CDeuofJz0n8ybK8rny4Wj5cYNUrZlRVQWIcz4yxWvi0eeimo1k9r/MpD5BQnxuWyvdB5p4Kk3bhq24UmVp3UUOPUvYA4MCgGmiGMjK0VC9wF7NZp3l0rt05h/mylNDSmPgAAtWOBFdzNCbdzFz+Zq7Nz/9uFLWLJYfppv5yn6Hy6B7dT3DL5Ftybk70QwafOkDwu6o2MS398FDUqNR7AoSK2gxmp2VAAvr5u/f0EM5cvGec80Y7R2mQYmB7G7XUiLnkAfsQigMlz2ibfizJsvL/yXV6mVvTNYcPBe68omM4jxrDakMMybIm3eY2BaFJTtnys5/jE0D7tcApdiLdxogOshTtTg302M6lWZhy/KEh2Xw8LQSOJdMai2bVvvXlpY1MEF7EOTXjMoIUFYZFnxqXA42r5PKVaVGXWncxidMmvMQzGd8h2//rcDB0ixGA/tcTHyHHpeZEPeKiI+3YFIcyQd8l39lFD5V5ynXy+gbchVafE79h/kDlJn7pJGy+CMzxyegH6LdEfP4WSPju54jxw30cSEgkO/3X8vciYWc7Nv1eoW9tCRDdr39pO+VaTdJEF70nbviANSpCFE67h+6TiDb9JCcYumgg2K79caO5EnP3y7PDJVlM41EJKYf6wXMh/iXP4IGcOfL1+X+84TB3UvY2pjPOSqE99dyuGMxGsRkxs0BnnkSBUbdLDhAxSbk1oYlgg6q6NTfyvYN6l6EJBhlGVYRgzWmsYVTDDoDTPQOWF+/TSY8riowydNuNuNJochiNCPnGTdPu8Vn3Bw3XDatzFVxRHpNfEQ/mmk4s36EdwxiAYzx2hsqeuRN8uOysCM1s/hp/zQmUkWoyzUaFEyUWoyq7ihN0uXtT/QxfeOG/PmYBJYuEaUYIPHHU3TKdTFFKXsB8A9UNPFpWUEklShmTmbxE+7WkSmotufAUtct9YhySFqM+jAZ3Ys1zwv+pH/Cg+6FW3Kd1qQqRQscf18qVXrBNtF2fUwU/UiE6G3UQYt8pvAfPWXUzagETF/zaDgH94op4KM+3ZvfYtTLE+Mn398v3P2Y/y6ZFCfEM0QpSh72AUXE4CWceSQC0wf30SWmvWoW32MQlodlX2g/buIA1GlemOE+IX7H4ESiRZB8yBK6inmD80cy3lSUNU82fqht7zSWdZelXwZNO2K8EDtD3n9Ul+McR07N4y3CE/ajlh11dmLvx15frVRDvn5fV7h/XF1ZVxQxvadiFPzRi8ghlm3Y9l6zgTTtKG16SLvecnBfadNTajcxnGCPEb+SjcxhIEs2ljG9ih3b3lkYjDFuBncHohTTgXeOcvJQc/poeAKjDVukZTdW+tU+C2BpmTInsAAsLHEtcGdp0KJs5cx9P9/Xe5gNH5wZP8htUrelHNTbOLc33l/rYW6WYXlZt1xYVccrfvEnsnlVkO+ZA+L+f3FXYK6pZNTv87XWYkTpw4KpnP0nKWJg7XKOzJ4QdrqDWb5arVRpc7FhVXyAUpzhfrUnKEudRrJr9+pu2sPynNhjMMrYbdw1KstRl0nHY30c5HwZRcfjSsef4xWPOPz6PflktOk/wMG/bkIkX3Svj/nm5b+ZKA9YEPNBThumPK/3OZ0wSGa8ENalI3UQVKqFeNnlSN5hh8/AezPHp4QpvgdgFL5g2W5xqPQa6L+IEuY9nTxomfyxboTRZ9IIY/1hcu2gBH3gcL8Dvlh6wfM3r34VfC24bPbsZ07ESxFbo3oOks9eCPVtMNYrqpiHjt2xXX/V6qF5SqZLkjw9JIdqgQ6y8OJ7jT+b7ypfvLrZEX/dP+XM/zYKFjISIc2a52nX6crQ6sb9Nb8AdR7J+PDBKP30Yy4KO7aCUQDkpnpNwpZ1l0pdIxdqew5J27LBYjTFoZILcMN05+gr5IYXtPtFesb4KZB685ty+PmyeVnGNU+EXDkQisQnowSLpptYNOpxidFwAggu8Rn/vMW4ELgJ4wCGp9hDM9Xu7zkzct3SXFfX3C0Mf52HISH8wzPnRLbVaiSDH/M5DEkVYkJDSHkidiPzcCUmCeEMj39xo/1LlVFVRCUZ+pFY3lVEVq7XLzHKQPmQEaXPaVl+3ACZNspATanOxsq23dzHCtG5r3Q42sdlqW0vWTQ17KxLvSMfRuc+6p4snKqboXPkJ12MGMVC2bqnDPifoDcGkRjw5nxgrM3G04zN6SX+ZqkyDOJMQhkE6fv9DpN2R5kdZ+pUkFRmL0DxnZv6dNgpS6qeXC4QpZ+N1g5y6DnHDpEPHjOfCohEvOFtzcWBvaXj8XLgET6fVqoNR/eXOe/EeQXqx9taaVZMwtYtLr8vNvUWXBQdRhnfjxzo4w6XajToeW+EccHE4MJKdKazit3+xctnyQ8z5N37pM3RcsxA7QOfqjl1QX+8cGvGmlPZEr8w7s+P6X2nGGv/PcKYgZm3Yf1FvHHMuNtQlakZeKi07S1LZkQWpSyzEUBA0cLP1Y3ySxbXXhF64tih2gqTYgZeuuOGyZoFxi8OwRmDGCKJktysq/T9TRBS2fO+5pvIXRujPd4i4OM3o7WGgyMLU37vQbre4uoODgb3nF1mu1C/+iYZ5dscJf3/rH+EJ2u/jcl2XVfEdBHN6xnij84QDomX4nRNvHQ3rjDiJB5AqYTlE+QuvB55lc9xnSnWNetQMB8fBoc3PTvyGHZjAJTXQYcZ+k+jIfAXhph+sbXQC1AWQdCpYrM9zKMD8hQLRvl8Dz5FOB/bS8yH2IHOdgXglQibqARHSSqkWjUddp6OEartsTGjM3vbH+aOEfCbzMpto/ZGdY5BcAmPAv4UMcG/5jmpXs/E9EPRzESAmKd36CuXD/PJ8vpdgh5SKCqKsR4Gsbw+dIQPE3BWH3u91GqRlxklz2VsZW1JzQ+cdjw8KIFNcD6vtPtWag7EN8PwyhyofY80M/7ujEH/o//M/Ui+eM28CI4geJEOGenjEEMVOFhNfqp0NdjZp8pN2oCLAiYCfKv7XOkvrTm0d9IjyfsqBL1V+m9FgVHU0Bte85l042zxr2F5n7vw9LNvF2ylihCxDw+Iv2lJ1ZZKAgsn9BLDeqdTpcMxYedAqRq4QEOdM1nmTTImZOrBv8kxTlE5F9ePzTipYtRmX+jKhcZOx8SLk/uaIbm7Z/R5cAcQcDegPK8Lj1G4fPqtPh7vLEKyvaZ8YhAwzJ33d59IY8ie8f9IRoQ40MTYXquJdDpFDjraX2gF973ZBfCGOQkXQxvH4SGAld2U4sjFOs38B6Xgyr2/oj88PijalMtbSe53Yk2Pc3/s7hoYbVt08wEoQ9gbt5cTQGkLX8JLbF16Qgf2wB3p05fMRC22HswLYtHk3watpctp0r5nWG+Y3RxK+58Fz3n/ysIW7HFsYELVZn0uF8L/5skh5vv0fga5VBujbIExihZ11s262VhMRt0YeZUc+ZGKC0KNqFxR9/E8+zu58WWtEZ59i4y4IrK+4awDoee17C6dTgwaTPXL704jwxZ+ZhxN3MTetw86hPpmvCuZ7nqyXjtaFiaUggOUphYSo6Cq81naFkibxv4//1EsgLNUdWg/E3UjRVt+lOkvRYApnQGsX7xDr2/hJ3XAsbLki+we+IzmjtRkZQsn60P6CieMuV2ZUm0LuDBzoA9l5jvGQ3nHRmm4n57PnXaTPHtNlg8YI0nfqwIeEvQTCiiz+LWLIn+WQZXm9lshMYqree9LdfNRQ5d8HnmmQlVHnp2m+OOfMe3ZCBilHcjdb/5ttr0jrtzUd6g8OjBjn+U+B8LHgKPJvp4oC/5tLFDOHIjVSMbZd+6Tdv90t8VosbgpruI4vAxdh6vDoefrCSgrZ6CfuVEmog2zp8i0F40dFDNT4jsOMj03zP0MLxqmaG55GA3b9NJCFE69fXdMBu1MN1NTfwxidBt3l8YoLtIM2RwW6oZFKTRLdgR0PEkOOkrrslmf7oRemvWefDvV5HXmQO6wZIh2Z3+zsjmwv/mJyzNqpXgpEAlVEfajKY+bqKK4LrToKHjUQ3Ab7DLBZ5Rw1pBoQ6a1ZVVheSYLhlEOy+qermzx2h+/Yo7aLqAOxKORZEznmS25qfu58uptZobrjOY0ft92MedAeMMgseZMMqEe0QqQmgFCiye++6C2i6F+tO5lAuN4444gRHHnUy4yYPHDEaWYNq4LXxgm840ZPlcwGg7fnvvbcL94MVwXBqMwiE/WO/TgPMH9whIOo9i6FUYZ/ceuM/3a8gg5uLe/L1xws5kmz54s7NXctKL0ZBxkdlYCRlvWmjBM6gSIU6+Txy6Viuk10DyEKO58isY/Zsz7DgFH92igchZnsjAYRRqxe1MRiiCudBXys21IPSsgCSyYr6C9qSXyy54w6zdKRAXU4/yEl9acKTLv/dIFHoztUQdTR5QqjKJ+EEZFuYcyVTruKm29R6OY8VKQqM76CgXPUBiMYjJkfUXRZ68lEKNG1RkviSj97A2NURWKMaBmlDw82WZOlPnvm1ylima6zAsorn5y1A+MQcoOxf7m+13uoQhRmu3ddY2zX8GHJvVGUZOFwSitRCa5iX5lOo/MKAZiNMTjRCKeH4LEmoPZ6F0TKsJRZgIUzUivCfh89zd3O79sf7OxN92oa2U5d+YbkSW3rqXQ6QJglP4jCJtyiWds5X6REKIL8zuWwjDx5DG2z5sqX70jq+YYRROhlfiXRnsg3/3NX75iTGawjocqHZoiEx7NKQZlkXRHATCKMtriCP363+KeWEwHWNHx388KwigfFQ5HM982yitzc6bYeXUtAPofPSO9LkhTN/nOD73AhLdFj2ePqyJmaVkXTlWR4kwWAqM7pbHnNJbl83wsKW6WgewA8v2Vm773U/UEzHD5aZknUAdGHIztOBzNfc+4Y6aM7akK83fhiFL2NysXW0yh0583UVuUDZWWvDM8y3JU/lqbbM0FwCj2EWLFKFoxJ8gsyljW6EBVIi25baOoqAcINsIdEqIxgFZ/k/GhYGLt97oo5tsJf5caTQpjUGRTHnZ4ZkXu9VXsDIhSYgopQsxjfw1j3lIFizBZCIz+IjXraVbgxBkwVmJXv+SutGFOl/ekGQd9nabdGe86LeNiKRjduNyd11yzPFO1fsYiOnce0pUx6T+p9zef+Os01DqPZeNXLtHQ89D2+FUWZq+IknmMoVlJLXVmzZ81A5aEAAKjHOqlqFABj1LNQJQysmNAcJNbrDr3cTNdk3lB3112j7guDEYVa8LsxFVFyiGJn4oi9WmpX8snycHJmDyDCU+UAm4/Cm5bjF8LgFFEVOJCMcabxyhSDM3G4PD1a/5bBZ03Itwanigwea+hwrwKx6YrCphiOzkTl2HeIVI1CWOnokIFjlPNQEa++4S6V5Ykxn7iBtqy2gtxVYA5E5/45vX6XTl7GK0009ePdRCzi9fNJ1ULnnj4j7rXBXDmnzxGqnhw5i4S8GFgSajdNJW39KJQgeNUOxClBMlZNchn2wkeW8wvLUYVx6InK8jGNbpU4/Ylvu4ZxDq9Mm20LuJOb1st3U4Wca2J/7RVpjws1fZ159LXTEEyERit21z/uG6ZcWYrBmKCP+Mdn4hDnzy/x6/Oe9mbARTejMndQXqt+kZX17R9Fns7eAr681vopyODimQGKI1DMDdtpxuJxTRA9Orc+UwTbf2o830e0HuIkaN7GRUCoxVl2SzNxpadzIJe8RCNaXGwbg5uxXgEF5zMbpAL0hSbVJPwc2UDKoPA3kQFwChKJwuJysi3X4ei46ryH0XBzeWkjgRfj0363t0gqfpPujbmSXmpGortogAYdViAx4ObWNMj3Gvw8ro7f16vaUaDNlpQsVKfaUqX18aoyhGiRG4LcLVu1z3X85vVEwueLAxGmafP/1i/O/GI8X0uBqIZR5yrG4LPcsGVUWcQ9zoyq7YSuTKX85tVbQVPFgajdPas8frd2Q5RPCqp142o5SEmqB1+BXgTF0re8/EcO1ivziutCbaipcQ+v1n3ShGkC4NRRyXFN8dNrIgeyREFW933CnBNAzhk22vhZ6vG4OEmdtpJ15t5CSo1M+h4O6TjvVUmIcrSqPf8ZkTpTxvjPafoShUGo7CB/Q8fv6jZEf60F10yuXTwjIRlAtzdAeuNr8oZt8p+XU1QRfBKoJR8z6aR33weisy5AK+Z/c2K2EHQqke5fkKqAQkmC4ZRzPJsSYPFbmIqwM7GeBY+tVgasCjlfqK65tEEOw+YkaTykwd9gIMl/jBBzrndBM8hYmP+wMoH4LsbZDyRQeuW7m9Otc25YH8zgdX3AirAWmiKa2wOIX6GOrmLCcEnY4PWRVPF3Re4xOOQlhbvaYPxk49E4ID1z94DIxUyXq1YJfljLRftZeb7MvMtI1YZKFC7kzIF8PGcdotuGFup5k4wW+p40Ph79R589je362NOSUUc7NFU4PijBP688Q1t5YH1AfGVMrGbodA92gIOUBKJaMzQ0XoRnBkJy6pE7I5EgJWDSee5ttXnAlbeiy/BG6tx1B/LgqUB4hOu1fub2Rf6UH+ffaFU6PCKVuXSsEg8iZ254skdbotdOPeCiNLVS6VT77SaataVKvVl3sRoIGNwR2CU/UXcwceE/Ve3+IRO4UDbt/8usz+U7duNDkDbwhCbYdodKT0vlHbHmrF4+VxjEGCtvwJ/0dUrDEln/FF/PBiYJ95f5j6CKF38ufQ4P20ljAavWCJrF5ubiHY8YglGTiCganXN2ZO19jXt2bjMWCoMZEvi6oR5u3LOU2A5ytvSeQPu9zltcdzw8guwYQ6FukT6DtHMR38Yc5ORQxibmMI7UZi7nCEHH6PjA+iSnnRqizNnbuP1x7cEqsIQj/Y9LMB7GA1QO+pyraug8d/fT/CM7vQrE3eDsAZu7zCnAYwVi2bIVxNk8TQTITrA1SZMgxPPU3iMOoPO71/zeTXOu5n9Tt7jwADQLmfLmZ4ACmwmue8CI4Hcko/Wmmj22wRnwvbHS+cTdDgTn9dIv+XEJCNUBFEUzc7SkpDh6VnSUr7fMLqEbxRSRvz/HKc3fmGZCj4RL/U8wPrRC/LxM0b2h/yEUmXzd1HgsZ4XY7jBdL94phxyon5NxNU2tgt/aMRAnggdlKXFU3/jU/3oW2XTSt1VtBalAkGIeFsxV6a/Kh+OknWrpXI1qc3cJYTHSbWast/Bcthpclg/aXiAbNkoaxaWLAr4DbU8pXEHOXGwbt7oW4xcd388Tg4iWW//2cTmdVOTNlI53PQRd9u2h0vXM8zkb/135iiIYqDCYxQu0LX0045d0sazBxeW1W0ls942g6O3S3LhIN2PnseJIiqOklPnxKdl1ltBCjFgpdlGClY0EWu/HCcfjZFli8xYWb9pKLACiKZtpWtf6XGhND5Itm+TNYuMskjNzh8toYX9btNbvdFAPh3j3za+n+8+NQu5IUHpy0C+om6nmu5YNMX/Kb6l8nezKDDK6/HJwpE6LU23KeLOwSfJ3CmyhYgglU3/5UiM16zBcK7zrx+V1l18KsOb/b0Hwm5OLwVrVYPLdd/JrAkyeaQsmS87f5FaDYI2AqQeXIlQAK2M2tCzvzQ/RHbuklXzzfyGr4jYvMd5bGGjSwJRZeIDb7fpRxOzN0dCXjBzxYbt3TOTY81RixdeH3W3GN2r/zCfybWTh9hx7z1opCnSK55MNdokbisVzKp3Js8MtLdX/itos7+7wZmuGYids7ubdJSuTFb8zu7OVNa5z2hL7L5jLtbTeZr3+l+CdHTU60GPZowC5MT0W7VYfmLrdgWjn7TsmDEzLeHgvCkjgh4X/BaJ/FpcGOWVgKnviV7O28JikErkI1RYvm9EVxiwAk0UNYZRivS6XHqco2cVKVZSebKnliELMfrwaA7S7XCcMQhENbWm2uZc3H2W+T/TW2c67IoigH7yc2awMoeopwxzu0qWG2rKoecIC9G+C2zGChv98GantYn8W3QY5a2Yxxx3jbahqLcloC7OcgSJZUyE4462muo5QAnxL/gAzcxSWx4qh52RUUI7lWPt+nyMj8VbPTpe0gErwhWDAEegcOyiim4Zplpw9vytxkOgYrWys+1SBXnZ/brpc1GcX7GQsKxftZ7/vkUzvGw3lrUz/qQXqyiOXLinn8/jUs/N90UxYtTw5Udp3VMuvC2jwHP4wvIjdscVi2TpXLNHausGE2wbQlRUryuNDpDmB5mBDG0vDNGRc9/N+ywhBQjnwLuOxwUNtb7Ndkyt01+TdYuMxSNlakWIXjdWT7Bg0cibZNW8UO+FdOh1pQ57RhtQ0CfcU7Ze4Nuq/N0sUozywkgFqN+fswi/ZFnD8XA7tml7U7KPSNXmgBXJiiWy8+nS6Xhjao0UsiVlal3+lRk0up7rY+XF1M8MLLxZHl3rpJt8bB3BOkbqpfJxUbwY5W3hO+PaQX2FuNreUHv5YAciirMQyj/cnNFZt5m5IP5TnfpEPnwM2zshpPfHCzt9xIg34/H1W6AqpgHhsZ5g7xSL7cn3lTCv4BfCcvOHI2XzVmncWjDdJUI4W7xxjyydZ0zWbjKuAvXMWV7lbL42plbOTq5grFczXjATu0gGTkytzdtrXwI2CY75jziH2rD6heLLKoOb6uwrn7xQ3mxxGhBuzdjd2HK/Rt8i7CPRijkfo93x0uO8yMuP7iZz0MfU50vWrmoYK6n3/GNM+nP/LcRD5bnlTMz5mFod91s9vwZt/EU1CHz0oplaxSB0D9Zp8Vlxz+p4OhHiA2LJxHhQyCJFLUfd72BWIKvK2u9k+isy7SVZs1x27jR9iQjJSkhNDm3/cKy8+hf56i3ZtEaq1DR2K8bWrydoXyFqA7hTx5QYtnJeL8jaNncGdBvoojvNo9309kPyyi0yZ5r8jIdrw7CDyat3GAtoJlO/u36f6wpSqaZeU131Q8kZkOlt8ymb9K2i1kczvSx9ibwx1ngWqKpLnabSpL3UbVLm44wJHYvJhhUmFvOab4zvGbLBmf+m7FNO5SiCHFHc/8/6USmPJ/1DPtN4hLANQS0uMDEafoFRkUutVz+VHjMebGo1pS6MM9A778ezvM5WOKRzyFv5q6R7wFjvRQU4A3DOWAxeOV+eE9vNweC7ductkX+OhR90Bhw0SCULJvkcJNeuu5km41Ef1VF6dwsi/8+L0BgFUGqZ+FSpSw0vwh/t2bzWYIXV2nr7C0eV+joKbliV0c4fpmU8iCi7ighj7Zj21P18J6M73Oa7RRHrB68wlN7l+6b/Sv9KgkNxk5+U4PRWD4LfuF3vrCIb3nq1GhvpVT6EED3Z4x+IloLtnRdxE2/Ey+LVSqRpQrU9OUT+dorRFN3EMJIjeV+8UGGs93iM5tgTTnEWovB281L//ymnYAoIUWYk6sBF2sMBSywOZSIHrHxjLBERG9VNagei+6fY14UKv2oxaroMcbtusbAWqghzIwZtFr3yTQjRE6/VD2FmPX+i/+qlygpY2XTlpnpNchqX+WZqN3PXZ64LFX7VYrS0J9gZ/NloYxdUhCmqRbfSRS/1U1JJAFGnuc8BS+Mfkip1Qj2Etd81P6TlxFSE4Yma4xEDPVNJReuWmo+5/MlitIznaHhj/qAVO36+8M9mQha7v8sekOEKOX2KJ7gDX8v3bDtOOShlKOvcxqtm2Xydo22v+Mo0NpPOfXSFC6dmV+51mSTSFqNlXGTEBIhjbyu741xhhT3vjpKNnfqXBNJIrIZtfXwSJjxs3LVCElBeMFXnPbp/TGUaJnAaL5YNNzEJQx2yctTNk8JcM4Nm+9SMCfrpdFg33E1ynizrekt2g5x2k76NdRY3kfCAIOd3HxuTsJtw+GrbO46Wgo/EyR65Ps8T59D9rLxeWzmq2cs0+c07y8kUhRBlN4gKxkuDYhywhJPe9Hf0u/Rja17EQFSEZCO6iTds4LQXzbJcQchi1IftzJ9G3exzH1MUMiZBYkvdydfo+nDf3rAksuYHgKY+p6tCSxn0iBnxQyrTAJTYEN5VN45JZwU/vFzX7cgtbTHqwz86Y/0SmfC4/glTVN/fJ2aKYsH2gGPT/Dac5xG5CXUwKqFMb11v4mcpwi/kqmcN4oMVFUDM59fqcP9DVl+/K4JyrBqQe9Ji1J+HiNKpT+fXFEVQu75D9dNRhbesjSxEnVpo8/sP+hyBx6f1H6/IkQMMCrEhMPqjY6T+kJ34NeNb3e9O/30m4L5QsyXnvfZInxLdsflJI1owOd30svaNZ2qS+/4egNKut/Qr2YXsbv5dp4fdSOgulboGedXrydAndZtTGZiNEeV95YLS4zCr1JBWXYM2V2ECG3lVrrtkU0+Pd2ExGsS3/HlF4evuDRjobM5GHOZCtJnwJ0TxzZ3YlTBiSPyd4rk3wKnBjvVBnMQUteB9f1PUYf2zaHgB9TK8YslSscFwCvng8QTcrGgzG5jYxqS8TALa4/sTK7GPDyo8QGmbxahvB5XdxHFz3F99TFGE9g3wimLMRZ6BReePa/fMmu3UJwwqe4RzNeV5oyMyucmd8IrCa3b4AONLH4+Q6LhTIdETaU+8NqRK2bE+xYqMF0CHUJ2/eVpn8EagBYuO5zXhSRq0LImlw46ULbJprSyfLavnG49swNr9Yn3UJzrusLMS3hzMg5gMIbD5HpTM1m/iSmNmYha/dlEc24KrmiQvC+EjkGT7y6OuUlPUEzpAKX4beEVNfMB0p2PZ6XKWdOjlE0vVaSV7kjiIbNoLPiGcOFUav5BkCRHIPrDZE+TLV03wSvbQsfKUiVAM5k2Tj/7XrG9VqV1EAKXBVo5m6jV9H5l02SM+a0LP3izfTjGhE3Ch956Yo2vxS4PdYWfkd8O0UTy2GOQ17yyN2kj95qVN5ZD2Vd/KyoWyYpYZ1lkIKJSh3o8xpfcsRgOYk/aTMUX9LDe9os068QLmu6t+/R4j7ZSzvTtDUte8An+sHbCphgsIXAJK59+knpJ4PUmo6Ik3qigrpCOhF+/UjUPVi7qr2F0FSi0b6ssBoDzUwaKzqYb5EH9sreHRRSg73SyyGHVzI8s13elrispSLPBnYiu07lX40/0C21jgH+1YH7kDWE689n+DYvs4848fZsvaJbJto9SoJ43bmhDVXv+m1LMfHiSbVhe7PEu1tpwvLEYjM5z5R7POculdPgXRTd97Wr54yYSbNH+oehVk1y6jyBJ7jIG11yCf3clURMEHLkjY9uTTvj3zlh3rI/cbEU/7DPYphU/d/efJzLfNrmJm0Kh9uMcDU/7lGrdUrj94TO4938ftA6W2742JeVT5NG5PvmUxGq33EKId/QyNOAe9+IeSWUjm2D5MWZimEDvy4Yt9PKo4Krd+KyNxLSkOWIwqhmRJEsaszxU6DzHqJ95nDObO3F//nJ5GmrJR6ZmhPuurvYfE9wFIf8helbIYjdCdjleyioTKMmbUMx6Asm/UCQ7GRYt1LJcRmrW3Z7UYjdDDzHu6pUflpPD4R6VydG86pClHUqHCKupyph3uFUus35NmSFAaZbFN17QMCNGv3zRTohiEbsr6uKJ2PeLs5FSV7GVJK0fDdihDMHNzdTrMws/jD82IUjayYXVyE9uPkNaW3BywGHVzI+gajDZurzNgqEeDjE2UXfltWmmCqVeqkXbHJixGw2IAjNbzhOlavyynxSEmT6zXu4m9b9Vqx5fN7qr2mmuL0Qhd6Y2+hLEzF/K1VRUq1EIuL5LXshajEdi7fbPOzEllZcGj9Y/Z08hm74FMjid/9sL/Z3JYjIbtamTehmU6c4P9SmKc69th0xgKlF8f/ihEZ/aVr2Er3evyWYyG7VJws3Kezow3Uy7TcMLLN2+XVieO8RyAa8nNAYtRNzeCrsEo2y04r8NNuNthkGLIjkEs/XOEnxrribnAEV6W3BywGHVzI8s1Fk02zSnqOSDmIjuhwo4ZoCqTBdPKySdfP7iI0xajETqHGfeMN3V+ttrhGBpVlLLvvvNZPgHJZr1lMao5bDGqORKQRo4u+UxbNMl/+XDj+hkepvimYAT1BnviCG4eYUlxwGJUMSRLkr3nnEejiMB0lz5ootKF8f5EgnJ+5NVPqTpMclISsXR86t3Db1mMRutAZ9sdMxtFTJ6uGWPOLwwQqCCYTfocpXDdKL3uT20TnzZ6rbU6KcaStPuZvDzJcocxHSRdP1ZPyZ1iBBCdPFLWLTJhc1KhRwjwhImqVQ85YbD/zjsi2Dw1xGwyseTlgMWolyfZ72A2atJBLh+WMSer8MhaDFWongQvIS4ITn3KZypVmDglDw40KStEUzxxX1iMurkR4Zpxue0xcsGfIhTxzYoH6uNXmTDhdrbkyx9uWn00E2ey3MfetHCyPH1DTmE+EbcPXCRb1lmABnHbYjSIO8G/AVNWR++7UNAmYxCa6yOXmHJed6oYte3FRaw5LqfOZZrPFOrJX0uHU+TEIdpBJFPV30yX8cOLK8ZnpqYWw32rjybTC8yi8Klr3kU69zXxR5U3k/MMoipzWtxXb5njl9jMZBXQkKy3cjQko7JkQ6Dyt2qB/GuWcVzCL6T+/lKzoTHXc2r3hqWyfrExRXG/UlXjhmIpPAcsRsPzKntORCN/6KnQxhXmj2BPhHzCqGRtn9nZlyGHxWgGxuR82w7lObOwtAI7r0+Kk7aefHHAYjRfnLX1JsUBi9GkOGnryRcHLEbzxVlbb1IcsBhNipO2nnxxwGI0X5y19SbFAYvRpDhp68kXByxG88VZW29SHLAYTYqTtp58ccBiNF+ctfUmxQGL0aQ4aevJFwcsRvPFWVtvUhywGE2Kk7aefHHAYjRfnLX1JsUBi9GkOGnryRcHLEbzxVlbb1IcsBhNipO2nnxxwGI0X5y19SbFAYvRpDhp68kXByxG88VZW29SHLAYTYqTtp58ccBiNF+ctfUmxQGL0aQ4aevJFwcsRvPFWVtvUhywGE2Kk7aefHHAYjRfnLX1JsUBi9GkOGnryRcHLEbzxVlbb1IcsBhNipO2nnxxwGI0X5y19SbFAYvRpDhp68kXB/4/vKGsU0Hr3HkAAAAASUVORK5CYII=;" parent="1" vertex="1">
          <mxGeometry x="270" y="920" width="60" height="60" as="geometry" />
        </mxCell>
        <mxCell id="VJ01svG1hFMq5krCHa-V-18" value="Data&amp;nbsp;&lt;div&gt;Processing&lt;span style=&quot;background-color: transparent; color: light-dark(rgb(0, 0, 0), rgb(255, 255, 255));&quot;&gt;&amp;nbsp;Job&lt;/span&gt;&lt;/div&gt;" style="text;html=1;align=center;verticalAlign=middle;resizable=0;points=[];autosize=1;strokeColor=none;fillColor=none;" parent="1" vertex="1">
          <mxGeometry x="245" y="980" width="110" height="40" as="geometry" />
        </mxCell>
        <mxCell id="3H0iRvBN5fyzFn5Ot1tH-1" value="Provide Config" style="text;html=1;align=center;verticalAlign=middle;resizable=0;points=[];autosize=1;strokeColor=none;fillColor=none;" vertex="1" parent="1">
          <mxGeometry x="80" y="920" width="100" height="30" as="geometry" />
        </mxCell>
        <mxCell id="3H0iRvBN5fyzFn5Ot1tH-2" value="Config Table&lt;br&gt;(JSON)" style="text;html=1;align=center;verticalAlign=middle;resizable=0;points=[];autosize=1;strokeColor=none;fillColor=none;" vertex="1" parent="1">
          <mxGeometry x="-65" y="980" width="90" height="40" as="geometry" />
        </mxCell>
        <mxCell id="3H0iRvBN5fyzFn5Ot1tH-4" value="" style="sketch=0;outlineConnect=0;fontColor=#232F3E;gradientColor=none;fillColor=#8C4FFF;strokeColor=none;dashed=0;verticalLabelPosition=bottom;verticalAlign=top;align=center;html=1;fontSize=12;fontStyle=0;aspect=fixed;pointerEvents=1;shape=mxgraph.aws4.glue_databrew;" vertex="1" parent="1">
          <mxGeometry x="450" y="1210" width="54" height="54" as="geometry" />
        </mxCell>
        <mxCell id="3H0iRvBN5fyzFn5Ot1tH-5" value="Data&amp;nbsp;&lt;div&gt;Intergration Job&lt;/div&gt;" style="text;html=1;align=center;verticalAlign=middle;resizable=0;points=[];autosize=1;strokeColor=none;fillColor=none;" vertex="1" parent="1">
          <mxGeometry x="410" y="1260" width="110" height="40" as="geometry" />
        </mxCell>
        <mxCell id="3H0iRvBN5fyzFn5Ot1tH-6" style="edgeStyle=orthogonalEdgeStyle;rounded=0;orthogonalLoop=1;jettySize=auto;html=1;exitX=1;exitY=1;exitDx=0;exitDy=-15;exitPerimeter=0;" edge="1" parent="1" target="3H0iRvBN5fyzFn5Ot1tH-4">
          <mxGeometry relative="1" as="geometry">
            <mxPoint y="965" as="sourcePoint" />
            <mxPoint x="435.46400000000017" y="1240.726" as="targetPoint" />
            <Array as="points">
              <mxPoint x="20" y="965" />
              <mxPoint x="20" y="1237" />
            </Array>
          </mxGeometry>
        </mxCell>
        <mxCell id="3H0iRvBN5fyzFn5Ot1tH-7" value="Provide Config" style="text;html=1;align=center;verticalAlign=middle;resizable=0;points=[];autosize=1;strokeColor=none;fillColor=none;" vertex="1" parent="1">
          <mxGeometry x="210" y="1211" width="100" height="30" as="geometry" />
        </mxCell>
        <mxCell id="3H0iRvBN5fyzFn5Ot1tH-10" value="" style="sketch=0;points=[[0,0,0],[0.25,0,0],[0.5,0,0],[0.75,0,0],[1,0,0],[0,1,0],[0.25,1,0],[0.5,1,0],[0.75,1,0],[1,1,0],[0,0.25,0],[0,0.5,0],[0,0.75,0],[1,0.25,0],[1,0.5,0],[1,0.75,0]];outlineConnect=0;fontColor=#232F3E;fillColor=#C925D1;strokeColor=#ffffff;dashed=0;verticalLabelPosition=bottom;verticalAlign=top;align=center;html=1;fontSize=12;fontStyle=0;aspect=fixed;shape=mxgraph.aws4.resourceIcon;resIcon=mxgraph.aws4.dynamodb;" vertex="1" parent="1">
          <mxGeometry x="880" y="740" width="60" height="60" as="geometry" />
        </mxCell>
        <mxCell id="3H0iRvBN5fyzFn5Ot1tH-11" value="" style="shape=image;verticalLabelPosition=bottom;labelBackgroundColor=default;verticalAlign=top;aspect=fixed;imageAspect=0;image=data:image/png,iVBORw0KGgoAAAANSUhEUgAAAHYAAAB2CAIAAACSxfBGAAAAAXNSR0IArs4c6QAAAERlWElmTU0AKgAAAAgAAYdpAAQAAAABAAAAGgAAAAAAA6ABAAMAAAABAAEAAKACAAQAAAABAAAAdqADAAQAAAABAAAAdgAAAAD29hMZAAAVKUlEQVR4Ae3cZ4xcxbIH8GuvbWywyTlcjMg5g4gyOYmcMzY5I/hA+IAECEQSAnGvkIgSj4yIIufwAInMJSebjMiGhwOO7zeu95reCeud2Tm7szBtdKjTp7q6+t/V1dVhdsB22233j3rSzJkz62Fv8/5jYBuDohFoQ1w0wm0rLhzhNsRtiItHoPAa2r64DXHhCBReQduK2xAXjkDhFbStuA1x4QgUXkHbitsQF45A4RW0rbgNceEIFF7BoPb+b9EYtx1F0Qi3d9oKR7g/Q9xfXFy/cRSTJk0aOnTowIElhadMmTJ16tSwP0CnVLxFNlLDoEYK9UWZwYMHT5w4cYcddph77rnvu+++6bPSjBkz6DJgwIC+0Ki7dfYbiP/4448FFljgxBNPhPX777//5Zdf/v7772zZa3fb2kd8/cZRLLTQQmeccQagAbXbbrtxGh0dHVxEH+FWR7UtDTEP8D+z0hxzzLHMMststNFGc845J+PdbLPN/vnPf/rKUXjWlerApkmsLQ0xJ8B4hw0bxlpPP/10sxw0wzOcfPLJXn1qEg4FimlpiKPdgwYNMsvNP//8Q4YMATGLlg/6Aw880JyXm3CBOPVAdEtDbDb76aefFl10UWimaW38+PG//PILuz744INXWGGFaDu/DO4e4FBg0ZaGePLkyYA74ogj5plnnhQIC9rY9YQJE6DCezBtRECcAuSWmgZbEWJjP4wKfKNGjdp0001FxAHx9GnTZ86YOWLEiGFDh4kuTHpbb721VUny0QVaY6OiWx3iI488EnwCCUkbb/yvGy+/4nKBRMeg0j/Rxf7777/00kub+mLh1ygOBZZrOYiN8WTF22+//ciRI1kuAID4/fffP/HEEw8++OBzzz0XKGNecMEF99prL0TyJAWi1ZDo1oJ42rRp4UaZJy8xZswYtjl9xnQ+wesll1zy2WefWXTccMMNYbOiC5923nnn9ddfX8dE2YZwKLBQa0FsHpPAB6w99tgjwl7gSi+99NInn3wCU174t99+u+WWWwKV0l7FtOmii8UWW6xAnHogurUg1hCxAcNcffXVOdnkMb799ttrr71WFLHwwgtPnDRR3Pbwww9//PHHoJ9jyBwTJk5Yfvnld911V68taMgtBzGfa2Y7+uijOQTmCW64P/3000yYG5EEyCz966+/DkM26w0fPhwPq7fI7oG1FVW05SCG7wYbbLDaaqtpMfh4BptqIEZAlouAMgLQ/3nrP1deeSW28MsIHaO4GC52iFh0pKLA657cloPYygJShrx1nSaY9+68885ff/01NQfEgAPx7xN+f+bpZ7755hufAkrR21ZbbcUpt1R00XIQ77vvvuIw7sLuMOw+/PDDxx9//Mcff+SXUwKoSS5QvueeewDKnzBeS5LDDz889jlTl/Q50XIQ77TTTkBhxVZ0fHGZCSe8xMWB8mOPPfbpp58y7bBcjuK4446zAxqcOgMRNh7PJKHXiJaAWKig/bZ7Lr/88mh5aWXR0fGvf//rgw8+sEHBPJMJJwInlPmT888/nzvGFmWXXXZZPyaEcoAeKPcaoJUVtQTEADWDrbrqqiuvvHKoCLvPP/8cvmxZjv2ghCxCTjwR7F0Md9NNNxESaPIwdo6WWmopM2SE2GG/8Qz5vflsCYhFXWzwgAMOiJYDS+JkBWogRnPNXEEZygkmYYYltQO9wJ1fXnzxxS355hw2p57TW4mzT4iWgBiO9hliloNCmPDzzz9vpLNEEDPAqkjFHiYebkGYHLsZIAa6Dlt0sUVJi+J9Am5U2vcQw9FabpdddhEJhE5ChWuuucbw5wSAKNMTjsa+gMzGkD1MwHHQnuyUNwDra6+99vx/P4+ZHMxyDj30UK+iwBDbV88+PuSHkUF90EEHgZUNwlTO/fff/9Zbb0EwLNfwh6P1iA14AQOk8JxzzjmvvPIK808dI1/HbLzxxvDlu4cMHrLeeutts802d911lxzjILnvXsa6j60YiHYsN9lkE82eNn0a7Izx6667Tn6+3PAVyoFvTH2+ikPk5FPZuHHj7r7rbhJKofGgkvkfdthhvDwzJ7mXkU3V9SXEms2Et9xyy9CGCYdLhYit4TDhpGi8CtHAFwsTTsOuW2JAODO99757bV9wMsYEOQbHCSecoBvQnjlzr9F9BvHPP/+s2fCFcrTWQIaOy1TsVOa8884rJyX82OadZ15P5x26x3Ju/K/jc6QwyzQIRgwfMWBgKbZj5mJkqWTXHR0MPwnsJpHLb4zuM4iXWGIJa40999wzIl/aM+E77rijsWZEKVMcYxdN33TzTfovMpm8TTj5iD7ZU+5tiNlOtBxx1FFHcZRpvrIUth1RL8S5LwYiZO0cPfXUU1988UX4X07cJqeIZckll3Q7oF75PefvVYi1OUEsUItZjlsAkwFu032uuebqSZPIJwrQtt+s92J8hDnb4Be99VB+Y7r1AcSsDBY2a2iMcHoE94svvhg6P/zwQ73NyK2YHFF24Pjss8+K/JI0w2X06NFOTxh1yuwdolchFjOwKUthztEFKi30Cpd33nnn9ddfZ33pdk9jjY/FXpQ10d18880MWY9GzlprruXKgD5II6mxWuot1asQgyBwZFDg1lrqmqOuv/56WPCVQtp6G1CLX/Dw1VdfXX311RHYqVekHDfAqVGrVBH5vQqxdhqnTMkUJ37ghTXJvQhr37lHzM1LCGOb1UhdKLh+6KGHPvv8M+4I4iQvvtjim2++eS8bcq9CDNl11lln7bXX1lrrYwmsbp9wx06RY6YyiqummLUi2vWMFJlVe0WUxv9C89JLL8U233zzAVpB+5xrrbUWfx0dXLVsczN7FWKYCtQCWc3QyFqHGj1vJI9PCFsWJke4rVdgbb/Cei8W2T2vpTsSehViPyCwScb5WulSzpZCnMt1R9EGeJitUlC+++67hXEzppdeoWzVY76Nrw2IrbdIr0Jsm9zIjZ1GioYJQ7xepbvPHziq4vbbb3fHRcHYu3DI7fwp5AA9NkC6L7YuzsIhtqZgRyKnyy67TGNMaHyuTYYrrrjijTfeoKuvdWlcLzOUeXxhclQXxTkNe/Yxu5qBQZzH1/VW0TV/4RBrhrnFvq2YrGNg6TdG0hdffvHMM8/YkNQ8uHetYs+/LrLwIqILoSEXPLDj/6oTg/tZDgsAdxMjmUptC2+ew0rT2jHHHGOWiz1cd7Btuge+mgfxSrWam/PTzz+p3TbebbfdFtMg+YsssgjHZW4QShbazYVDbE3hDqtNtUAzmXDv2G90lZWeHWTg3nvvvbaHUv+tuOKKtoeoBOWU2XSiyRDDUWIUkkUUP+vAzXikt3weWb4V18ABpXrTnK6RKTW3hbPUGcDV2n02zapRmJxOUSljN1WYjKBAc6tO0poMcSBFui0IEFtT7b777sL+WCsbrVzwm2++6Tpa0qCXCdcznnzqSWPLlKtq4DpFtUhJmjddnyZDHPoJkiZPmmz0bbHFFn7uIjOWUpphzgF9HGHI73nDwk4rn7WQsmXsWATEU6eVdkgo4H6MvYviNi4KgVgDvvn2G/uzjpaZiZZogMb4AYELgCzasK0FQdH5nBW/fNVVV8VRgL6h2D777GM90vP+rqp8IRBzCMIg83UyDROO9RUvERGohlXVpotM9+OhIxoxOOIIThxmgOf2mxeP/DwnEASlTJOeJV98xUlh+9cCuDCFvFTP6UL2p23ruNoD4nRoJCC99dZbv/vuO+1sQGkouFLlIjdCJwUQsePcmDT7nH7KsOGGGwbihIjenKK+9957lGzuaqiZVqz90WCe97TTTmNi8XsYmXbc7Ss2hq/iChLFfoErcT5iPu7IBXqVVk2hSdlTRGGeiJHEkKGcohrbJraHYn1fVqqHr02DmK6aGtqsscYaNi3REW+aYRxAGIw90ZWfAQ2BksERtsx71CUzwI3VB20fffRRW1FJgsjnkEMOsZEdOQ0bRBIYREfaDSn7UO8r7cOyqH7BBRcIQrljjZFpf8CmMKBrDcDUNyrN6VwHVubCld+bW4tvu+22fnPg5rZK02otZw45REWKTyCLuVemHK/2LmgVMU/wWPKJ6twIxSkFZ3xq+Nk0KwYfnZgYFwwO8xv9AG08ujNpUMcGZsOKWnCTsNxyy1mSrbD8CkaJFUSyuO6LDVcT/Mz23XfffeSRR7xCnH8T6pj3XJShueYkN9J9+ZWcTYOY6vAdOXKkXxkmF2yOdtgOZY0RKlVW3/0cDY7DIX1pr8PrH1P+UGP3JVRyKk6OUN09LgaBxmN8uGbHRIw/o6SyVL05Awy6estU5WcFUDZj+LEGc2AF8DUSDW3qxldPqbJ4Ph5zOuc0oldaaSUom6/cuvxl/C8ckRqrokBIZUV5TtBAFOqwWTc6TjnlFIjrP5Zr0vMq6hAmysnVaIBumi9mAiA46aSTKAFcT0AcedSRiGQgQXstS/JT8inRiYCIPuMWoADTsD5fc9QSMwny6RO1pHxE5PgUX0GJ4MT8LsqfZOCIoiD/rrpXX30VgSGX0ADd0/KpStvBNrnj1S8AqPjQww9xoImh6UTVzlALmFiibmDvEgKUwNI38lPCaRzQM5ITAwXJZLk+WVI7xlW852o3belhrLllHQrxlTZn/Vij5/o1IAFMaU4rmessc45n9Ers8/kDAXCXogp/I0DY4y8CpMW9AO7ll1/WJQ3okBepCXF0ac7aNe3SGAYmwzT4Ymu5sWPHioEKNeSqKtFcvgk2fXXsEuCWPfP1IZ1feOEF671ohQMa49JOt5t2IUfZkJzEdpPoBLGu1v861shCzFaEHlZEqHDeeefFWplmSpFgm3jHHXfEkN83jdtmikSitAnHMyVlI7aTgyfPjx+TYpBpCpL0pdcwybhf4bXnic60ImfwwMF2k1988UWrat7DYrXq1DrbGv+EGKZaBVx10L47PSZUYLYmCuMraoqjIws5v7Odbd0NM9DNif2MmTPg20Rwq+rDUCzTY3Q2BvGf053yrIyDBzFT8kxVJmtCpEyEmEyOTeF8VAYDFKScOXKIlawa9GVMRGg5Zcx5wUTjibJxI4JNFI2vqi0m/ZVDzYRMWfOTYl0Tf0KMT5DokM0mr7MfAz+a3YXH0CVcGFsuq8Owoo2EgGMkmMoJF8HYDRTjsTR0SoOn01I1OqMS9CiurP/SQXJZ1UW8HnvssTZDGo4u/nQUlHNW6JqMYQ6Us846K/7MKov2mlTXzkTzucxKuFqyr1l3bXwyfoVB8tHQB1/iL30tje9Z/xKQs4iIqCKvxDMrxfoYKScY4lNiIDAWjcETpTxTflQdf3ch6Pxpxzl/TbTRmWgHNMwIvuGg8+YnHm4am/iaxQQdnjZWuZ0gdooVJmntYB2x7rrraoBUVa4KzDk4Xa0sC25K1xVmIQsLxUOVHJeERQ43hqR0wJTq9ZqKp7LBXMmT55d1cJKPiOqiopRPWgypIPJ8EJcxp69ExWrLnGw1a9t23LhxLNXAxdNpAb3ffvs5zUyBoZvVZ555psqCNSSmauQTzcDZrH4OjUsSZ2kZfR6ZoXR8imeCCUPQ8hHK5mwBUJ4ZbKGD/JTCmxlVPkV1FPA1JMTmhrIp+YROxVN+EFEq6GhC1BjPMmav+MWmtqhGjRo1evTosWPHnnvuuXIC904L6I8++ijmLphSmgNig2+//XZUmUCMOqK+6FsoRxTlqaBPKUUzSJB8wi8hpMgJ2tPgikRIrLj0HDm5BEUSLoikCd3Ck3hG0gTdD3Qpqkj1xmsUT3rWIioBlYPZk5wguAjC4etmrUyTv3sNcAuH0wliA5zT8RkfpSnBVzgacNZC76gsWhjVoLU5VRkMnopHexIiwfP/zS/9n/zQL5UKngAroAn5nsGT+BMhP/QJnqBVmlIqG9VFvaFGmQKJM2RGjWXPkO9JAQnB28ar2O7UU081XORre9iKP3xGQqe5yIGb26h+Qu+DnvFk7W4E6xYBBlmUIyIq9iql18j8mzwhyIwMMsZnonM97vjjj9d2KBl/CNvQN954Y6DRCWJWrG8tGRWOeU8BRm1ZKT7TOYyLgfxNcOyimUzNVhdfBI0111zzoosuSotbUZBzExia8apAHL6PB/Hr94AS0Hz23nvvbX6UowO6qPhv9UnkyZAdYItu4w/FxRYdQ7zwwguhzCUEIJ18MZs1BIx9v1izJg4mmUJjI8KNfhBjCBehfBBlzzw/6kgM+aeUicjza9G1+FN+FMyLp0+piq55cv7Z0gyR/bpxusoqqxArmaXNZCzan0E006LDTDvFxcEaT9Gu0DhoBcQiflcUhSNTT4Tq8Rri0GHp8Zr7bp/CcVc2OHfolXTX/EmHKJgXV2MqKx9dyZOKJ0Kp1BZ0reQvGblDFDtzeABquDtod2MPreFwIJOomhC7AmxbWhdRS/+QIiJxtKxw1EpErkpSMZoRr7OFOCREr4TYKJ7TISqelfxJhxCSFycklQptK3mCAWeSk0qFDrWegW8qzks8+eSTflrBKQdE3Iiy9KkJsW+u1/njJRwNH82167H8h/cYUgVkJRWjGfE6W4hDQo5LJR08+TPnSTpEZv6JVqmUfHQlTyqeiLwt6FoJGtyu8e2psaJgU5xwQJOlwDfKdlrd5eKGzzV8ytQpFntjxoxJ+RwQ1xwpZYbeScX8NacT/1+DAG4Mbs154IEH3JATQgDBXCUnb3in6S5v/NBhQxmvOzj+QmhshyuvxyJ6C84QFM9UNn/N6cTw1yBAEQ3xx8sM98AXRGk0+xpmVxNiEbVNIy7cNpWDQhJ5gNRv6DL4QlyCL3/N6cTQ34loFBcsaBOieeUcUksRia65jnA72EUCyPLiZkn+BaaQjdTfAWqK/lZqZ599drLfWjKr++Kw0GSn6dyslhT5qdOiVLzmdBdl+90n7Zo6ZeqkyZNEAWXKR8MTGr7WjCiiZLByGl7zYmVy8685rDldWaT/5mhXpISJ19SclBk5s4FYyXARuYgkKyeS3OCM15zOmfs7rXU8r5lN4jnLmuk1oaGls4EYK3ccBfJilRilr3l9OV1Z5C+Tk9quRTkdDawOMb6yrsDdTbxSHcEfBRMdtfajZ2pOLZ2rYpUzV4c45/ib0z03jppB298c2SY2vw1xE8GsLqqmo5itD6our51bgUDbiisgaXZGTSuut6KeTwv11thf+NtWXHhP1W3Ftay10nfX4iy8TS1WQduKC++Quq24lkZtm62FTNuKayHTtPw2xE2DspagNsS1kGla/v8CdIw2zKxnA34AAAAASUVORK5CYII=;" vertex="1" parent="1">
          <mxGeometry x="875" y="910" width="70" height="70" as="geometry" />
        </mxCell>
        <mxCell id="3H0iRvBN5fyzFn5Ot1tH-13" value="" style="shape=note;whiteSpace=wrap;html=1;backgroundOutline=1;darkOpacity=0.05;" vertex="1" parent="1">
          <mxGeometry x="875" y="1141" width="80" height="100" as="geometry" />
        </mxCell>
        <mxCell id="3H0iRvBN5fyzFn5Ot1tH-14" value="" style="shape=table;startSize=0;container=1;collapsible=0;childLayout=tableLayout;" vertex="1" parent="1">
          <mxGeometry x="500" y="650" width="70" height="70" as="geometry" />
        </mxCell>
        <mxCell id="3H0iRvBN5fyzFn5Ot1tH-15" value="" style="shape=tableRow;horizontal=0;startSize=0;swimlaneHead=0;swimlaneBody=0;strokeColor=inherit;top=0;left=0;bottom=0;right=0;collapsible=0;dropTarget=0;fillColor=none;points=[[0,0.5],[1,0.5]];portConstraint=eastwest;" vertex="1" parent="3H0iRvBN5fyzFn5Ot1tH-14">
          <mxGeometry width="70" height="25" as="geometry" />
        </mxCell>
        <mxCell id="3H0iRvBN5fyzFn5Ot1tH-16" value="" style="shape=partialRectangle;html=1;whiteSpace=wrap;connectable=0;strokeColor=inherit;overflow=hidden;fillColor=none;top=0;left=0;bottom=0;right=0;pointerEvents=1;" vertex="1" parent="3H0iRvBN5fyzFn5Ot1tH-15">
          <mxGeometry width="40" height="25" as="geometry">
            <mxRectangle width="40" height="25" as="alternateBounds" />
          </mxGeometry>
        </mxCell>
        <mxCell id="3H0iRvBN5fyzFn5Ot1tH-17" value="" style="shape=partialRectangle;html=1;whiteSpace=wrap;connectable=0;strokeColor=inherit;overflow=hidden;fillColor=none;top=0;left=0;bottom=0;right=0;pointerEvents=1;" vertex="1" parent="3H0iRvBN5fyzFn5Ot1tH-15">
          <mxGeometry x="40" width="30" height="25" as="geometry">
            <mxRectangle width="30" height="25" as="alternateBounds" />
          </mxGeometry>
        </mxCell>
        <mxCell id="3H0iRvBN5fyzFn5Ot1tH-18" value="" style="shape=tableRow;horizontal=0;startSize=0;swimlaneHead=0;swimlaneBody=0;strokeColor=inherit;top=0;left=0;bottom=0;right=0;collapsible=0;dropTarget=0;fillColor=none;points=[[0,0.5],[1,0.5]];portConstraint=eastwest;" vertex="1" parent="3H0iRvBN5fyzFn5Ot1tH-14">
          <mxGeometry y="25" width="70" height="20" as="geometry" />
        </mxCell>
        <mxCell id="3H0iRvBN5fyzFn5Ot1tH-19" value="" style="shape=partialRectangle;html=1;whiteSpace=wrap;connectable=0;strokeColor=inherit;overflow=hidden;fillColor=none;top=0;left=0;bottom=0;right=0;pointerEvents=1;" vertex="1" parent="3H0iRvBN5fyzFn5Ot1tH-18">
          <mxGeometry width="40" height="20" as="geometry">
            <mxRectangle width="40" height="20" as="alternateBounds" />
          </mxGeometry>
        </mxCell>
        <mxCell id="3H0iRvBN5fyzFn5Ot1tH-20" value="" style="shape=partialRectangle;html=1;whiteSpace=wrap;connectable=0;strokeColor=inherit;overflow=hidden;fillColor=none;top=0;left=0;bottom=0;right=0;pointerEvents=1;" vertex="1" parent="3H0iRvBN5fyzFn5Ot1tH-18">
          <mxGeometry x="40" width="30" height="20" as="geometry">
            <mxRectangle width="30" height="20" as="alternateBounds" />
          </mxGeometry>
        </mxCell>
        <mxCell id="3H0iRvBN5fyzFn5Ot1tH-21" value="" style="shape=tableRow;horizontal=0;startSize=0;swimlaneHead=0;swimlaneBody=0;strokeColor=inherit;top=0;left=0;bottom=0;right=0;collapsible=0;dropTarget=0;fillColor=none;points=[[0,0.5],[1,0.5]];portConstraint=eastwest;" vertex="1" parent="3H0iRvBN5fyzFn5Ot1tH-14">
          <mxGeometry y="45" width="70" height="25" as="geometry" />
        </mxCell>
        <mxCell id="3H0iRvBN5fyzFn5Ot1tH-22" value="" style="shape=partialRectangle;html=1;whiteSpace=wrap;connectable=0;strokeColor=inherit;overflow=hidden;fillColor=none;top=0;left=0;bottom=0;right=0;pointerEvents=1;" vertex="1" parent="3H0iRvBN5fyzFn5Ot1tH-21">
          <mxGeometry width="40" height="25" as="geometry">
            <mxRectangle width="40" height="25" as="alternateBounds" />
          </mxGeometry>
        </mxCell>
        <mxCell id="3H0iRvBN5fyzFn5Ot1tH-23" value="" style="shape=partialRectangle;html=1;whiteSpace=wrap;connectable=0;strokeColor=inherit;overflow=hidden;fillColor=none;top=0;left=0;bottom=0;right=0;pointerEvents=1;" vertex="1" parent="3H0iRvBN5fyzFn5Ot1tH-21">
          <mxGeometry x="40" width="30" height="25" as="geometry">
            <mxRectangle width="30" height="25" as="alternateBounds" />
          </mxGeometry>
        </mxCell>
        <mxCell id="3H0iRvBN5fyzFn5Ot1tH-25" value="Write Results" style="text;html=1;align=center;verticalAlign=middle;resizable=0;points=[];autosize=1;strokeColor=none;fillColor=none;" vertex="1" parent="1">
          <mxGeometry x="305" y="660" width="90" height="30" as="geometry" />
        </mxCell>
        <mxCell id="3H0iRvBN5fyzFn5Ot1tH-26" value="Data&amp;nbsp;&lt;div&gt;Ingestion Table&lt;/div&gt;" style="text;html=1;align=center;verticalAlign=middle;resizable=0;points=[];autosize=1;strokeColor=none;fillColor=none;" vertex="1" parent="1">
          <mxGeometry x="485" y="720" width="100" height="40" as="geometry" />
        </mxCell>
        <mxCell id="3H0iRvBN5fyzFn5Ot1tH-27" value="Status table" style="text;html=1;align=center;verticalAlign=middle;resizable=0;points=[];autosize=1;strokeColor=none;fillColor=none;" vertex="1" parent="1">
          <mxGeometry x="865" y="820" width="90" height="30" as="geometry" />
        </mxCell>
        <mxCell id="3H0iRvBN5fyzFn5Ot1tH-28" value="Error Handler" style="text;html=1;align=center;verticalAlign=middle;resizable=0;points=[];autosize=1;strokeColor=none;fillColor=none;" vertex="1" parent="1">
          <mxGeometry x="855" y="980" width="100" height="30" as="geometry" />
        </mxCell>
        <mxCell id="3H0iRvBN5fyzFn5Ot1tH-29" value="Logs" style="text;html=1;align=center;verticalAlign=middle;resizable=0;points=[];autosize=1;strokeColor=none;fillColor=none;" vertex="1" parent="1">
          <mxGeometry x="890" y="1241" width="50" height="30" as="geometry" />
        </mxCell>
        <mxCell id="3H0iRvBN5fyzFn5Ot1tH-30" style="edgeStyle=orthogonalEdgeStyle;rounded=0;orthogonalLoop=1;jettySize=auto;html=1;exitX=1;exitY=0.5;exitDx=0;exitDy=0;entryX=-0.001;entryY=0.284;entryDx=0;entryDy=0;entryPerimeter=0;" edge="1" parent="1" target="3H0iRvBN5fyzFn5Ot1tH-13">
          <mxGeometry relative="1" as="geometry">
            <mxPoint x="320.08" y="950" as="sourcePoint" />
            <mxPoint x="864.9999999999997" y="1173.1000000000001" as="targetPoint" />
            <Array as="points">
              <mxPoint x="450" y="950" />
              <mxPoint x="450" y="1180" />
              <mxPoint x="860" y="1180" />
              <mxPoint x="860" y="1169" />
            </Array>
          </mxGeometry>
        </mxCell>
        <mxCell id="3H0iRvBN5fyzFn5Ot1tH-31" value="Log events" style="text;html=1;align=center;verticalAlign=middle;resizable=0;points=[];autosize=1;strokeColor=none;fillColor=none;" vertex="1" parent="1">
          <mxGeometry x="620" y="1160" width="80" height="30" as="geometry" />
        </mxCell>
        <mxCell id="3H0iRvBN5fyzFn5Ot1tH-36" value="" style="shape=table;startSize=0;container=1;collapsible=0;childLayout=tableLayout;" vertex="1" parent="1">
          <mxGeometry x="620" y="830" width="60" height="70" as="geometry" />
        </mxCell>
        <mxCell id="3H0iRvBN5fyzFn5Ot1tH-37" value="" style="shape=tableRow;horizontal=0;startSize=0;swimlaneHead=0;swimlaneBody=0;strokeColor=inherit;top=0;left=0;bottom=0;right=0;collapsible=0;dropTarget=0;fillColor=none;points=[[0,0.5],[1,0.5]];portConstraint=eastwest;" vertex="1" parent="3H0iRvBN5fyzFn5Ot1tH-36">
          <mxGeometry width="60" height="24" as="geometry" />
        </mxCell>
        <mxCell id="3H0iRvBN5fyzFn5Ot1tH-38" value="" style="shape=partialRectangle;html=1;whiteSpace=wrap;connectable=0;strokeColor=inherit;overflow=hidden;fillColor=none;top=0;left=0;bottom=0;right=0;pointerEvents=1;" vertex="1" parent="3H0iRvBN5fyzFn5Ot1tH-37">
          <mxGeometry width="30" height="24" as="geometry">
            <mxRectangle width="30" height="24" as="alternateBounds" />
          </mxGeometry>
        </mxCell>
        <mxCell id="3H0iRvBN5fyzFn5Ot1tH-39" value="" style="shape=partialRectangle;html=1;whiteSpace=wrap;connectable=0;strokeColor=inherit;overflow=hidden;fillColor=none;top=0;left=0;bottom=0;right=0;pointerEvents=1;" vertex="1" parent="3H0iRvBN5fyzFn5Ot1tH-37">
          <mxGeometry x="30" width="30" height="24" as="geometry">
            <mxRectangle width="30" height="24" as="alternateBounds" />
          </mxGeometry>
        </mxCell>
        <mxCell id="3H0iRvBN5fyzFn5Ot1tH-40" value="" style="shape=tableRow;horizontal=0;startSize=0;swimlaneHead=0;swimlaneBody=0;strokeColor=inherit;top=0;left=0;bottom=0;right=0;collapsible=0;dropTarget=0;fillColor=none;points=[[0,0.5],[1,0.5]];portConstraint=eastwest;" vertex="1" parent="3H0iRvBN5fyzFn5Ot1tH-36">
          <mxGeometry y="24" width="60" height="21" as="geometry" />
        </mxCell>
        <mxCell id="3H0iRvBN5fyzFn5Ot1tH-41" value="" style="shape=partialRectangle;html=1;whiteSpace=wrap;connectable=0;strokeColor=inherit;overflow=hidden;fillColor=none;top=0;left=0;bottom=0;right=0;pointerEvents=1;" vertex="1" parent="3H0iRvBN5fyzFn5Ot1tH-40">
          <mxGeometry width="30" height="21" as="geometry">
            <mxRectangle width="30" height="21" as="alternateBounds" />
          </mxGeometry>
        </mxCell>
        <mxCell id="3H0iRvBN5fyzFn5Ot1tH-42" value="" style="shape=partialRectangle;html=1;whiteSpace=wrap;connectable=0;strokeColor=inherit;overflow=hidden;fillColor=none;top=0;left=0;bottom=0;right=0;pointerEvents=1;" vertex="1" parent="3H0iRvBN5fyzFn5Ot1tH-40">
          <mxGeometry x="30" width="30" height="21" as="geometry">
            <mxRectangle width="30" height="21" as="alternateBounds" />
          </mxGeometry>
        </mxCell>
        <mxCell id="3H0iRvBN5fyzFn5Ot1tH-43" value="" style="shape=tableRow;horizontal=0;startSize=0;swimlaneHead=0;swimlaneBody=0;strokeColor=inherit;top=0;left=0;bottom=0;right=0;collapsible=0;dropTarget=0;fillColor=none;points=[[0,0.5],[1,0.5]];portConstraint=eastwest;" vertex="1" parent="3H0iRvBN5fyzFn5Ot1tH-36">
          <mxGeometry y="45" width="60" height="25" as="geometry" />
        </mxCell>
        <mxCell id="3H0iRvBN5fyzFn5Ot1tH-44" value="" style="shape=partialRectangle;html=1;whiteSpace=wrap;connectable=0;strokeColor=inherit;overflow=hidden;fillColor=none;top=0;left=0;bottom=0;right=0;pointerEvents=1;" vertex="1" parent="3H0iRvBN5fyzFn5Ot1tH-43">
          <mxGeometry width="30" height="25" as="geometry">
            <mxRectangle width="30" height="25" as="alternateBounds" />
          </mxGeometry>
        </mxCell>
        <mxCell id="3H0iRvBN5fyzFn5Ot1tH-45" value="" style="shape=partialRectangle;html=1;whiteSpace=wrap;connectable=0;strokeColor=inherit;overflow=hidden;fillColor=none;top=0;left=0;bottom=0;right=0;pointerEvents=1;" vertex="1" parent="3H0iRvBN5fyzFn5Ot1tH-43">
          <mxGeometry x="30" width="30" height="25" as="geometry">
            <mxRectangle width="30" height="25" as="alternateBounds" />
          </mxGeometry>
        </mxCell>
        <mxCell id="3H0iRvBN5fyzFn5Ot1tH-47" style="edgeStyle=orthogonalEdgeStyle;rounded=0;orthogonalLoop=1;jettySize=auto;html=1;exitX=1;exitY=0;exitDx=0;exitDy=0;entryX=-0.003;entryY=1.085;entryDx=0;entryDy=0;entryPerimeter=0;" edge="1" parent="1" source="VJ01svG1hFMq5krCHa-V-17" target="3H0iRvBN5fyzFn5Ot1tH-37">
          <mxGeometry relative="1" as="geometry" />
        </mxCell>
        <mxCell id="3H0iRvBN5fyzFn5Ot1tH-48" value="write results" style="text;html=1;align=center;verticalAlign=middle;resizable=0;points=[];autosize=1;strokeColor=none;fillColor=none;" vertex="1" parent="1">
          <mxGeometry x="400" y="830" width="90" height="30" as="geometry" />
        </mxCell>
        <mxCell id="3H0iRvBN5fyzFn5Ot1tH-54" value="on error" style="text;html=1;align=center;verticalAlign=middle;resizable=0;points=[];autosize=1;strokeColor=none;fillColor=none;" vertex="1" parent="1">
          <mxGeometry x="390" y="760" width="70" height="30" as="geometry" />
        </mxCell>
        <mxCell id="3H0iRvBN5fyzFn5Ot1tH-55" value="on error" style="text;html=1;align=center;verticalAlign=middle;resizable=0;points=[];autosize=1;strokeColor=none;fillColor=none;" vertex="1" parent="1">
          <mxGeometry x="410" y="910" width="70" height="30" as="geometry" />
        </mxCell>
        <mxCell id="3H0iRvBN5fyzFn5Ot1tH-56" style="edgeStyle=orthogonalEdgeStyle;rounded=0;orthogonalLoop=1;jettySize=auto;html=1;exitX=1;exitY=0.5;exitDx=0;exitDy=0;exitPerimeter=0;" edge="1" parent="1" source="VJ01svG1hFMq5krCHa-V-9">
          <mxGeometry relative="1" as="geometry">
            <mxPoint x="210" y="754" as="sourcePoint" />
            <mxPoint x="875" y="1156.22" as="targetPoint" />
            <Array as="points">
              <mxPoint x="200" y="754" />
              <mxPoint x="499" y="754" />
              <mxPoint x="499" y="1144" />
              <mxPoint x="780" y="1144" />
              <mxPoint x="780" y="1156" />
            </Array>
          </mxGeometry>
        </mxCell>
        <mxCell id="3H0iRvBN5fyzFn5Ot1tH-57" value="Log events" style="text;html=1;align=center;verticalAlign=middle;resizable=0;points=[];autosize=1;strokeColor=none;fillColor=none;" vertex="1" parent="1">
          <mxGeometry x="315" y="730" width="80" height="30" as="geometry" />
        </mxCell>
        <mxCell id="3H0iRvBN5fyzFn5Ot1tH-59" style="edgeStyle=orthogonalEdgeStyle;rounded=0;orthogonalLoop=1;jettySize=auto;html=1;exitX=0.75;exitY=0;exitDx=0;exitDy=0;entryX=0;entryY=0.5;entryDx=0;entryDy=0;entryPerimeter=0;dashed=1;dashPattern=8 8;" edge="1" parent="1" source="VJ01svG1hFMq5krCHa-V-17" target="3H0iRvBN5fyzFn5Ot1tH-10">
          <mxGeometry relative="1" as="geometry">
            <Array as="points">
              <mxPoint x="290" y="920" />
              <mxPoint x="290" y="820" />
              <mxPoint x="860" y="820" />
              <mxPoint x="860" y="770" />
            </Array>
          </mxGeometry>
        </mxCell>
        <mxCell id="3H0iRvBN5fyzFn5Ot1tH-60" value="update status" style="text;html=1;align=center;verticalAlign=middle;resizable=0;points=[];autosize=1;strokeColor=none;fillColor=none;" vertex="1" parent="1">
          <mxGeometry x="545" y="790" width="100" height="30" as="geometry" />
        </mxCell>
        <mxCell id="3H0iRvBN5fyzFn5Ot1tH-61" value="Data&amp;nbsp;&lt;div&gt;Progressing Table&lt;/div&gt;" style="text;html=1;align=center;verticalAlign=middle;resizable=0;points=[];autosize=1;strokeColor=none;fillColor=none;" vertex="1" parent="1">
          <mxGeometry x="580" y="900" width="120" height="40" as="geometry" />
        </mxCell>
        <mxCell id="3H0iRvBN5fyzFn5Ot1tH-64" value="on error" style="text;html=1;align=center;verticalAlign=middle;resizable=0;points=[];autosize=1;strokeColor=none;fillColor=none;" vertex="1" parent="1">
          <mxGeometry x="740" y="1211" width="70" height="30" as="geometry" />
        </mxCell>
        <mxCell id="3H0iRvBN5fyzFn5Ot1tH-65" style="edgeStyle=orthogonalEdgeStyle;rounded=0;orthogonalLoop=1;jettySize=auto;html=1;dashed=1;dashPattern=8 8;" edge="1" parent="1">
          <mxGeometry relative="1" as="geometry">
            <mxPoint x="504.00000000000045" y="1211.0000000000002" as="sourcePoint" />
            <mxPoint x="870" y="751" as="targetPoint" />
            <Array as="points">
              <mxPoint x="750" y="1211" />
              <mxPoint x="750" y="751" />
              <mxPoint x="870" y="751" />
            </Array>
          </mxGeometry>
        </mxCell>
        <mxCell id="3H0iRvBN5fyzFn5Ot1tH-66" value="update status" style="text;html=1;align=center;verticalAlign=middle;resizable=0;points=[];autosize=1;strokeColor=none;fillColor=none;" vertex="1" parent="1">
          <mxGeometry x="545" y="1190" width="100" height="30" as="geometry" />
        </mxCell>
        <mxCell id="3H0iRvBN5fyzFn5Ot1tH-69" style="edgeStyle=orthogonalEdgeStyle;rounded=0;orthogonalLoop=1;jettySize=auto;html=1;" edge="1" parent="1" source="3H0iRvBN5fyzFn5Ot1tH-4">
          <mxGeometry relative="1" as="geometry">
            <mxPoint x="870" y="1220" as="targetPoint" />
            <mxPoint x="660" y="1360" as="sourcePoint" />
            <Array as="points">
              <mxPoint x="840" y="1260" />
              <mxPoint x="840" y="1220" />
            </Array>
          </mxGeometry>
        </mxCell>
        <mxCell id="3H0iRvBN5fyzFn5Ot1tH-71" style="edgeStyle=orthogonalEdgeStyle;rounded=0;orthogonalLoop=1;jettySize=auto;html=1;entryX=0;entryY=0.5;entryDx=0;entryDy=0;" edge="1" parent="1" source="3H0iRvBN5fyzFn5Ot1tH-4" target="3H0iRvBN5fyzFn5Ot1tH-11">
          <mxGeometry relative="1" as="geometry">
            <mxPoint x="660" y="1685" as="targetPoint" />
            <mxPoint x="550" y="1430" as="sourcePoint" />
            <Array as="points">
              <mxPoint x="810" y="1237" />
              <mxPoint x="810" y="945" />
            </Array>
          </mxGeometry>
        </mxCell>
        <mxCell id="3H0iRvBN5fyzFn5Ot1tH-72" value="Log events" style="text;html=1;align=center;verticalAlign=middle;resizable=0;points=[];autosize=1;strokeColor=none;fillColor=none;" vertex="1" parent="1">
          <mxGeometry x="575" y="1260" width="80" height="30" as="geometry" />
        </mxCell>
        <mxCell id="3H0iRvBN5fyzFn5Ot1tH-84" value="" style="shape=table;startSize=0;container=1;collapsible=0;childLayout=tableLayout;" vertex="1" parent="1">
          <mxGeometry x="880" y="1320" width="60" height="70" as="geometry" />
        </mxCell>
        <mxCell id="3H0iRvBN5fyzFn5Ot1tH-85" value="" style="shape=tableRow;horizontal=0;startSize=0;swimlaneHead=0;swimlaneBody=0;strokeColor=inherit;top=0;left=0;bottom=0;right=0;collapsible=0;dropTarget=0;fillColor=none;points=[[0,0.5],[1,0.5]];portConstraint=eastwest;" vertex="1" parent="3H0iRvBN5fyzFn5Ot1tH-84">
          <mxGeometry width="60" height="24" as="geometry" />
        </mxCell>
        <mxCell id="3H0iRvBN5fyzFn5Ot1tH-86" value="" style="shape=partialRectangle;html=1;whiteSpace=wrap;connectable=0;strokeColor=inherit;overflow=hidden;fillColor=none;top=0;left=0;bottom=0;right=0;pointerEvents=1;" vertex="1" parent="3H0iRvBN5fyzFn5Ot1tH-85">
          <mxGeometry width="30" height="24" as="geometry">
            <mxRectangle width="30" height="24" as="alternateBounds" />
          </mxGeometry>
        </mxCell>
        <mxCell id="3H0iRvBN5fyzFn5Ot1tH-87" value="" style="shape=partialRectangle;html=1;whiteSpace=wrap;connectable=0;strokeColor=inherit;overflow=hidden;fillColor=none;top=0;left=0;bottom=0;right=0;pointerEvents=1;" vertex="1" parent="3H0iRvBN5fyzFn5Ot1tH-85">
          <mxGeometry x="30" width="30" height="24" as="geometry">
            <mxRectangle width="30" height="24" as="alternateBounds" />
          </mxGeometry>
        </mxCell>
        <mxCell id="3H0iRvBN5fyzFn5Ot1tH-88" value="" style="shape=tableRow;horizontal=0;startSize=0;swimlaneHead=0;swimlaneBody=0;strokeColor=inherit;top=0;left=0;bottom=0;right=0;collapsible=0;dropTarget=0;fillColor=none;points=[[0,0.5],[1,0.5]];portConstraint=eastwest;" vertex="1" parent="3H0iRvBN5fyzFn5Ot1tH-84">
          <mxGeometry y="24" width="60" height="21" as="geometry" />
        </mxCell>
        <mxCell id="3H0iRvBN5fyzFn5Ot1tH-89" value="" style="shape=partialRectangle;html=1;whiteSpace=wrap;connectable=0;strokeColor=inherit;overflow=hidden;fillColor=none;top=0;left=0;bottom=0;right=0;pointerEvents=1;" vertex="1" parent="3H0iRvBN5fyzFn5Ot1tH-88">
          <mxGeometry width="30" height="21" as="geometry">
            <mxRectangle width="30" height="21" as="alternateBounds" />
          </mxGeometry>
        </mxCell>
        <mxCell id="3H0iRvBN5fyzFn5Ot1tH-90" value="" style="shape=partialRectangle;html=1;whiteSpace=wrap;connectable=0;strokeColor=inherit;overflow=hidden;fillColor=none;top=0;left=0;bottom=0;right=0;pointerEvents=1;" vertex="1" parent="3H0iRvBN5fyzFn5Ot1tH-88">
          <mxGeometry x="30" width="30" height="21" as="geometry">
            <mxRectangle width="30" height="21" as="alternateBounds" />
          </mxGeometry>
        </mxCell>
        <mxCell id="3H0iRvBN5fyzFn5Ot1tH-91" value="" style="shape=tableRow;horizontal=0;startSize=0;swimlaneHead=0;swimlaneBody=0;strokeColor=inherit;top=0;left=0;bottom=0;right=0;collapsible=0;dropTarget=0;fillColor=none;points=[[0,0.5],[1,0.5]];portConstraint=eastwest;" vertex="1" parent="3H0iRvBN5fyzFn5Ot1tH-84">
          <mxGeometry y="45" width="60" height="25" as="geometry" />
        </mxCell>
        <mxCell id="3H0iRvBN5fyzFn5Ot1tH-92" value="" style="shape=partialRectangle;html=1;whiteSpace=wrap;connectable=0;strokeColor=inherit;overflow=hidden;fillColor=none;top=0;left=0;bottom=0;right=0;pointerEvents=1;" vertex="1" parent="3H0iRvBN5fyzFn5Ot1tH-91">
          <mxGeometry width="30" height="25" as="geometry">
            <mxRectangle width="30" height="25" as="alternateBounds" />
          </mxGeometry>
        </mxCell>
        <mxCell id="3H0iRvBN5fyzFn5Ot1tH-93" value="" style="shape=partialRectangle;html=1;whiteSpace=wrap;connectable=0;strokeColor=inherit;overflow=hidden;fillColor=none;top=0;left=0;bottom=0;right=0;pointerEvents=1;" vertex="1" parent="3H0iRvBN5fyzFn5Ot1tH-91">
          <mxGeometry x="30" width="30" height="25" as="geometry">
            <mxRectangle width="30" height="25" as="alternateBounds" />
          </mxGeometry>
        </mxCell>
        <mxCell id="3H0iRvBN5fyzFn5Ot1tH-94" value="Data&amp;nbsp;&lt;div&gt;Intergration table&lt;/div&gt;" style="text;html=1;align=center;verticalAlign=middle;resizable=0;points=[];autosize=1;strokeColor=none;fillColor=none;" vertex="1" parent="1">
          <mxGeometry x="855" y="1390" width="110" height="40" as="geometry" />
        </mxCell>
        <mxCell id="3H0iRvBN5fyzFn5Ot1tH-95" style="edgeStyle=orthogonalEdgeStyle;rounded=0;orthogonalLoop=1;jettySize=auto;html=1;exitX=0.693;exitY=-0.001;exitDx=0;exitDy=0;exitPerimeter=0;entryX=0;entryY=0.5;entryDx=0;entryDy=0;" edge="1" parent="1" target="3H0iRvBN5fyzFn5Ot1tH-85">
          <mxGeometry relative="1" as="geometry">
            <mxPoint x="861.8" y="1332.04" as="targetPoint" />
            <mxPoint x="480.0299999999998" y="1264" as="sourcePoint" />
            <Array as="points">
              <mxPoint x="480" y="1360" />
              <mxPoint x="862" y="1360" />
              <mxPoint x="862" y="1332" />
            </Array>
          </mxGeometry>
        </mxCell>
        <mxCell id="3H0iRvBN5fyzFn5Ot1tH-96" value="Write Results" style="text;html=1;align=center;verticalAlign=middle;resizable=0;points=[];autosize=1;strokeColor=none;fillColor=none;" vertex="1" parent="1">
          <mxGeometry x="605" y="1360" width="90" height="30" as="geometry" />
        </mxCell>
        <mxCell id="3H0iRvBN5fyzFn5Ot1tH-102" value="Parent of" style="text;html=1;align=center;verticalAlign=middle;resizable=0;points=[];autosize=1;strokeColor=none;fillColor=none;" vertex="1" parent="1">
          <mxGeometry x="645" y="1540" width="70" height="30" as="geometry" />
        </mxCell>
        <mxCell id="3H0iRvBN5fyzFn5Ot1tH-103" style="edgeStyle=orthogonalEdgeStyle;rounded=0;orthogonalLoop=1;jettySize=auto;html=1;entryX=0.323;entryY=-0.05;entryDx=0;entryDy=0;entryPerimeter=0;exitX=1;exitY=0.941;exitDx=0;exitDy=0;exitPerimeter=0;" edge="1" parent="1" source="3H0iRvBN5fyzFn5Ot1tH-99" target="3H0iRvBN5fyzFn5Ot1tH-5">
          <mxGeometry relative="1" as="geometry">
            <mxPoint x="429.97" y="1250" as="targetPoint" />
            <mxPoint x="1160" y="1430" as="sourcePoint" />
            <Array as="points">
              <mxPoint x="1160" y="1428" />
              <mxPoint x="1160" y="1510" />
              <mxPoint x="340" y="1510" />
              <mxPoint x="340" y="1260" />
              <mxPoint x="430" y="1260" />
              <mxPoint x="430" y="1258" />
            </Array>
          </mxGeometry>
        </mxCell>
        <mxCell id="3H0iRvBN5fyzFn5Ot1tH-104" value="Parent of" style="text;html=1;align=center;verticalAlign=middle;resizable=0;points=[];autosize=1;strokeColor=none;fillColor=none;" vertex="1" parent="1">
          <mxGeometry x="730" y="1510" width="70" height="30" as="geometry" />
        </mxCell>
        <mxCell id="3H0iRvBN5fyzFn5Ot1tH-107" value="Parent of" style="text;html=1;align=center;verticalAlign=middle;resizable=0;points=[];autosize=1;strokeColor=none;fillColor=none;" vertex="1" parent="1">
          <mxGeometry x="620" y="520" width="70" height="30" as="geometry" />
        </mxCell>
        <mxCell id="3H0iRvBN5fyzFn5Ot1tH-108" style="edgeStyle=orthogonalEdgeStyle;rounded=0;orthogonalLoop=1;jettySize=auto;html=1;exitX=0.75;exitY=0;exitDx=0;exitDy=0;exitPerimeter=0;entryX=0.815;entryY=0.159;entryDx=0;entryDy=0;entryPerimeter=0;dashed=1;dashPattern=8 8;" edge="1" parent="1" source="VJ01svG1hFMq5krCHa-V-9" target="3H0iRvBN5fyzFn5Ot1tH-99">
          <mxGeometry relative="1" as="geometry">
            <Array as="points">
              <mxPoint x="185" y="620" />
              <mxPoint x="890" y="620" />
            </Array>
          </mxGeometry>
        </mxCell>
        <mxCell id="3H0iRvBN5fyzFn5Ot1tH-109" value="update status" style="text;html=1;align=center;verticalAlign=middle;resizable=0;points=[];autosize=1;strokeColor=none;fillColor=none;" vertex="1" parent="1">
          <mxGeometry x="585" y="620" width="100" height="30" as="geometry" />
        </mxCell>
        <mxCell id="3H0iRvBN5fyzFn5Ot1tH-110" value="" style="shape=image;verticalLabelPosition=bottom;labelBackgroundColor=default;verticalAlign=top;aspect=fixed;imageAspect=0;image=data:image/png,iVBORw0KGgoAAAANSUhEUgAAAOEAAADhCAIAAACx0UUtAAAAAXNSR0IArs4c6QAAAERlWElmTU0AKgAAAAgAAYdpAAQAAAABAAAAGgAAAAAAA6ABAAMAAAABAAEAAKACAAQAAAABAAAA4aADAAQAAAABAAAA4QAAAAAYn8bHAAAm+UlEQVR4Ae2dCZwUxb3Hu+fca3bZ2WWXZZFDICKgKCCiGAWiQVH0eUVNNB5oTAwmiPcz3qIvxgs1JtFoPBKfPoNHFE3EC48kIgYRDxAFBJZll73vnfP9qmump6e3e6Zn+pjume7Pfnarq6+qf333X//618VGo1GGOyKd7fjLuj30lP/NlpTyYTtgS8B4CbjwycGN6/eeMT3aF/s6WxJPhsuHEFtUzrg8nopyhN1lpQMuEmCLitniYkeFnwuXOPxVrMeLsKNimMNXznq9xRW+YFGZo8yHU0dJqQ06hGMfCiXweU//pd804OYHxtdPKStmoUf3nHVc+JuNADHVK0IBuavRga7EpWiECffSUx56egr0vWOmhYfVOSr9ztpRwNo5vBYEl9RUg2ZXXT3rdkOL2zQnhFmQIQA6dcPXjNMRo2j2FKJHoRTTS0OeYLasWvJxdpg4OtDawrS2hBkmQLHmgO5gGEozIGbL6j1V1ZER+7rGTnSOGOkaNdo9eiyUsau2zmZXLM18PN89GBQCyoQjrcEQ0aPBbV/vmTfRUVOfRpUaIxROYcd0c6gb36QEI3nO8Qe4xk7Aj3v8RM/47zj9VY6KSmMSZX/FAAkA0Pp1m3gNSr4YjrTM2p8wijAwbTp+ItSYKTCVkwePb6gb4FK9C3A9Bx/qGj2ubPy+0XH7Oatr5J62480sAQLo+q/EKRQyimvWwFScCYYJBYjS5cwGgAt16555lGfaLOjaooNm2sgOFZgJY1ChV3+8WTJhLTP2i+lReplgetJ02pCXfMAakZTauK71zP1h0ZHf9045EOaBbdSasARTAIrURmdPSWIUUeGW5sZ5+7LFw0xd6WckaSDb3xHt7oVt4D70ZO/so4oPP9J7wMEZvcO+WScJpAYUH5VgFLHAdM/C6SRN8m15ctWKh0DFeuadXLzgpOJD57jHTbBiVvIgzWkBRR6lGcWFfMaUL9u4fi3af5pz3n+VHneSrVx52RgTYP/9edoPyTKKJ9E12njcDLRI8lCbigQTV66ILj7jqsqFJzgO+a7oFvtUcwkoARQfTcUoLgPT1jPnEcd7/lX6MiKP9rQwoW744IpPu9DWrDJC0iB6/oav3+7pT3KFyrw1DaN4KtrX23LqnILClMoKsEa7un2HHO4674qy40+WEaAdnY0ElAOKt6dnlNzU19t57vd7Nm+U6/PMJplWeQZmQA8Z3FBy3o0VF1xie1vVl1tGgOJzihgl9xUyplyxULXqXfjDip9dYTetsiY1U0DnFXvfmjYhNrok9Vfh+h723AeuKXOIuVaQB+oQx8hxwXVrmhdNxzAxjGYsSDGoynSmgPIfU8QovXvE/75WyJgSIbg8IBXjGEFq0/mnoFuOl6MdSC2BrAHFazNgFHfbmJKS4EgNfb4Wg8Varr0UvmQSaR/yElADKN6aGaN4AJi6ZxxdsJV+oiA4UgdWPdF4ZG3XM08k4u1QsgR+sulbhW6m5OfI2QSvG78zZhTP1P7peYJpt60/MCi7mh02ruuW8/Yed5Bd9ROskg8A+khrlxI/aPJzSWfZMIoXAFPPd0+yMaWyBKZwIaPq7/jDiiTpFvaJWkDDESq/LBnFwzUP/YVg2rGtsAsinnuu6u9ZsRStfjrDNn6hQP+qBZQT23eKuYmcakQITItOWmJjyssQChWt/t1H7FPgzilNAOWlmr0epa+ovuMBG1NemiTg8mD0LZxTPateSIovmJO7vt2j3gYVSksto3gXMMVwIVubJsTK1fvtPz+l/YE7E5GFEQKgV+7aq7KRxIvK7ybzljVgFG+puvHXNqa8ZGkA3v7e313devPVovg8PtUWUF5Q2jCK1wFTDLyI7LabULxsGZin/c/e2XzJjxJR+RvSA9CRnmz9o3Jy9l91U9nlv7YxFcqHuKXeeynvMdUDUIhxnyKydo5mepQWTOWlV9mYChlFmPXVAFP074vi8+b0sd0tGtqgQ8WiMaP4ADD1XXufrU2FsgamwY/fYK46UxiZH2EAunhbo1aNJEmZaM8oPjPs4l/amIrEjV7TXX9/FZhiMK7oknVP9Qa0UsN2/VApA9OK/3nc1qZCyQDThvfXsjctzg9M/97SqbcG9TpYCFAXPUoLpvzMc21MhYzScE9jcx5gCkCP27xD1yoe4qrSVY/amA6lk8Z0frOdCQcsjakxgPIC1FGP8phW/vZ5u9LnJY5Ax44mJhq1KKbGARpfJld3RlEkmPvr/+MqG1Me096GRhIGptefY61BUsYByjCYcEclZgSj+FLp0QttTKnE6e+ePXsZlmUcbsdtP7XKbBOsAm6ADSqUEg0bxCg+ZmMqlD6xSnEAU4Zx3mEBTEXL1JPE63zQiSL4iHGM4mPAtP65d+1KnxQuFtIKc9tgcNrU5JgaDyhWGSdS4g5DGcUXsdxXzcv/sTHFMFPScqIHxfS2xeacEZUDQDmx0EH4hJmYmAz8g3U+bEwh71jLiUoemLpL3HdeYjZMcwUopEIHjyKQA0bx1QSm3DYMtJgK7jdf3dOcA9OySveKy8yDaQ4BhUjowDwEcsMoPkwxJSt+FSymLk9PM3anEhxm0qbirZIEyTQ4mDNGkU9gWrtqS6S5cDHtb2kTlzfVprmu9GM70cS96OJEGnJ+oC+2KWguGUVOsRb9iLe3FKw2DXQKtrHkCx6Y+vywTXM1uTS2lxefnhwF6IASfDzHjCIFwBTatEAxhZ0T3/daTILP733oauMxNYMGJaIQqPDcM0oxrXuXc8QUmm2KRdyD8f2uxZAy0KYGY4qNPiQ2mxuaMENi6KAnfMoUjCIdWCJ5xKv/IXkvMEx7WlMOeeYwjXz0HpGMzoeSnWh0TkLi9XxnPaLMwiiSUpiYhgYGEyUjGfL5HY/dqjempgJUJAYTMUoxrVu9EX0whaNNgz0p9SgtLp0xNR2g4cjCYWU8qeZiFMnCdt91r31cUJjyhZEqwGHa+8arqe7J9prcfrLZvk/j50zHKPIHTEe+sdFTVV042lRRqfr8pSvv03wZKYV7eSlKoXY3TS0t5l9mRkaROOwSUb3yg0LAVNpFypePKODzl73yOw0xxSrgoi+Y5JSu/kATY1JGkTiKaemYMbY2TeKGwzTy/ONJkVmdsOu2kFXATXnQWcs0aeZlFOmje+4AU3v5/SSQYJuuflolpkSDDg4IXeVJn8j1yUhuJXyaClMzSpNY4FtDSdOiDlOVG31IJ0nDWEEnE95qAUaRSnvPHQkAssXU7IAKZtvRXFuDUYqpveeOmNTMMTU/oMgjP5PJYowiuWQzkyMW5dlmJp6KcjF5GZ1ngqklAMVMptnlpUIZWEaP0kTHNjOxt4YSliEwfXdl9PfLhXFDw9hHIeu9vIa+TdcYfgQ+/YrFGEWibUwl+PCUspv+nQJTbTf6kEiAplFC5yhebD1Gkeh82hrKXZZUr2Vf1vKYWgtQSGCEwPFkVUYppvmx546rKLZiTPZ08k9KYWo5QOGy5UeO0pxZUo/SpIu3hgoFinq38T/Yi8cCnn/NB8smY2o9QIc4nlDWZP8b6x7AtLWoBHt3FLuZr8efsmr2BVurxiI7vr72Ce0N0ze/MXH9H3FpwFtPBlKZ8HB5ymqGaZyuOKYXzz1b2728NE6n5OuSR+XRW9io3HwayVeYMhJ7IK0oPvLWg49H6sq4JVh64tUDTi/bsOqs1ctrmv9lRlJDgfqj5tBVnzQWbaD3nTGHzPvuWRYb7RCOvLbf6GOrK4TSyAdGf7CWea2dYRILBAky6GAorz/d9P4try5x7N4wUDpOcDn3wfojZumViEDv4mOWPFY1Sq/36/HecOSzaROmlCUG5uEjcYWjx/cMeScBtFUGUCQgwpSFyM/vJx1Rs+yTx099BgareVSLWgd+agk73YsaNpnUyJFPuahRjxutzWgMUPkM81coqVccdsZJ1+7uqhhNSDXBoZnjSTIvDvekzviyZ5I3mDBySKMeabQwo8oB5csCpG6orJt81T9fOfpuM2CqpeOJz6SVAxcJpjHx+bAqo7esjz7HLdjN50RpgKv9zzt22a8ufI/sFa2590dpOsgsbe0b9cKvR4LCMwuEwxF+PUdhai3JKAC9cQdbpsKbRC3UM28g9X7O3KhwhznInq36HWurx+j3cj3eLJzGxL/feoyqB5Rmntb7s5b9s2HCMUShGn6QBhOWdtLvCAfX1IzNZUWRedb4dciEj1qMUa0AjYkA7ioHM/tnK7ccfKHx5qm+DSa4vT2lFnM8OR3CKSI8plZiVGNAqQxgnkaY+ec98ulUYzENBfRtMEWCL044zFqOJ8kGE0rJMozqAugQTI2s9MtGDOdVhfaBcPC+8TOtVNEPGdrMy8QajOoIaDKmOyafYdA4fzSY9DNGw4E14w9bU1HDF7MlAocmD7/n02wBRp/aorYVz+c2VYCr9Bdc9EzDxAUGtPRL6+tSJUbltXBw7vRFVlKiXH5FXaC8DMzOKAD98Req3Ex8VtMHuB7/oy9a2V07Ve8C1tEYDQeenHYC4y1Kn18z3TEvuY9emDRTM2oooFQqXEv/osUr9V5XuqxOn4o4Gm0r8Z+7/xF6/48JGdIgLDUkj3+teRnNAaBxTD+oqrvm8s+KBht4MWkb0HEoSbDvlLnna5taY952XFXSeDzhR03KaM4A5WQD9/5fRk9Z8aNXdHKaFlf7hWWgWTjQe9ehZ1quqUSzL2eM4qoZGc0toFRkwBSDpt+ec4P2mKKbXg+vUziAQc1XTpxlsVqeE3cKY9SMjK7ZHDCukUR5lPkNTE8/+WZMQdG21MmClZp7nTgz1Hqj7qnkw5Gzh6eaMGMuPbqxITR3k0fNYBEZ3rKMRhfU5T94kLSftDu0r+jR7cmyVcf+Utv/Je1ynP5Nx8obo3jYRIwC0APXucwDKBFthEH7afnP3tOsxtd8PB4AjQTnLrjUcs6mBLky3fT8DWZh1IyAckJCjY95JjBMtekmRfeSU8WYQr7caIADdPH8i0k7KYcDYUWpyug0HPlNXVXqJ0zBKACd/S+jHPWp5SF1lRqm3fWHqeegYvxYqS9kFQdAg30A9LHafdUnLKsUaPNQCq8T/UDuGaUa1FHq1CbH+rwFhikc+2o9phq26CmgmPZpcUBRXCm8TqZgdFtL2HQ2qCTlnGEam1YqeYOCSM1a9NQGXXRNHgB6UVX6pS1zqUcB6L4fOM3VSJJHDTU+ppU212Rf42vTogegLDt34eUWtkF5IYcjp1Sn8jrRG3PGqLUApcJSWeNr4LoPB9qKfOxJ1+UDoJCp0yFakoSnVxjIDaPN3RELadCEvLgaH/Oes2jjazB7KRzYNGJS1fGXkc1ALNqKT4iSwXrNaVv09PYcMApAx7/vsEoVL5QqwlClS45exg4blxkloYDaij7Qu2bszP3nWXK8iEiG/GnaFj2902hGKaB8KsUBJCe7H/GLdDuPMD0u5raznsysjY/18bIejAcDlBssMvew0zP7x9BNBtq82FuUtkVPP2To2o4SgMb/R7ByGBolke5wuC2AlEW6QzR9kT7xUmOOktgzDh9JvNPv6XOThhfQgZJLHMJwIlaDEPXqnzPxjDE73lc4qS37UffhAHz+ZGkx6/uYkkQfjjw6ujIpRv7EuHXzkgDl0RxgvE39IBIshgciZO27+CU2HpBMfHQIgrjfNcxFwR2sLSa2BP+GITdLvjODSAczrb3xpTtGKlqFL+sFHOn6jIedSv4T8sAAFco3HInOOUAYkSJskB5NAMottljSSfRlqCnA9EUG4yQRKOPhFCmmlyQJDnWEom2cAt420OtiHB6Hq9YDRevwCToINOE13nj63us3sL40I+qzcYtyLnoMBo2Ntcs7QJW4RXkGDNKjvtc4/iJMcGd/YOdAFCBxOEqixidOfYCoWw5KdzVRsUm8qoQV6Y8wX17OkvZTiiMUqNjvO5kZo4HeTfUH7H/4WWSYSJ7RSQUVjjTMnCS53IOkIBUrLsmnlUX6/kHuC37b3/vP9sFvB8AN62JAp96A4qPkK/iWi4GKxaf7Pu7qfb998LNuJIakCbmnP+Qkw4NrPD17JregaYpHM2otcc0jzJgj7ff8cDBJSQZKVDmgeIHuepRdzaBm79/QRdA04j9CSipD4qh+dZYQY4AYr/wkyoyUK5edrfcdFGhtkWs8YRCJUiUa6G0bOeOUGcfkiX9+iMxjEVIrNcvdS+P1pQZVvPvTbmgvUwGKnFP9GglEoFyZte39azuhWXsGMlSrUKUO5oF5y2X9UAoHkaDxHg7A+qya/6M1pcPys36PY4hpIQpdTvEn9NSjpX8Ng05UpuZRn3y2hwaoZqVmq3ufYmouU1t26M3CGPi8mu+RVqVwOQ0bt4/wZnGYaxuRzRVmnZy31qcwz5krUTytlx49/dHuvg87qd0pTKRpw1SzUrO1h7NZ4axVaK3esPBBCVUaCgwbXSubX870ROc7fJ9kHlL+Wp9CCWShRPG4LvYoAP3rpiBbpOfimsKs6xAWGqxp1SpU6Rd3Hl7euUNolaKDfvgBk6SThsrd4b5r+okWncYpnam0sVkpUbxVez1KAP06ZGlAIRehwdrzLnEFpFar9594Z5IqDQWGT95XotQ40/PJqQvYU28oNEDRnM/UEqUC1FiPLn22Z8W6gNUBlWCLYeDTpX4A95j47kECJwBVpdWuvpZQCX4HOrvEGy8ROoNYzo6sFpavjk9JwdHIcKRl1v6ijUBT3C68pGU/Ux4DCpHBtqZ+ALgCvGOKEh4rkOpg5rQ2XlI5saS7Gbtb9vkmjna33Ost8w/2EFlzdKJhdNOB34v5lfLSMy/EShRG7/y4uuwAxZs006N/+mDggpV9bKmFbVCRYFOcEmuVYdx+l3tMSV+FE4BWPHga4xNPe/jTOH+NpwudRj+dfnyeez1TCIu7FJ09Jd0tste1YRSLi8z9Q0+BAMrLkm9Xzf1imbdjNx/PB0ZGg1uuvLnA6cRY5qHbK/IiUhLQoM2E8SJzH+8tNEAhXNquQqC0+RNJWe/u6V9TVJ7fPnnJjCciMdh+1PDsmkr8SzRgdNTDvTq4B/gUmj0wIuW+Oc7dW8yeAT3TB4foFWNGqPyCWkZvf7UvuCdoiZ4klZKSe3x3Sap9usIjJ8o9WAjxz00eqz6bqhjF8g3XvTGQl54mJZKFPRoNeJiyjp5R0juE9I2cUDKsAgaZkrfl2z0wQ6fum3VbXigNVYwe/FgvU1wQDXmhyBCmdLLlHUXH/9F56pI1FxW7OC9T0m3dXe8su8rr8zH19aT/qaBI5ZxNKs1QXpjZt+tRy1/3dsEpUdKWD3ncNRHnIY+FRr7ORIqYsJdQ29p/1CP9ZVtj/7FddTUAtHLkSF7Q7ZEo09LKDA6Qrvn8PsIRdCk9PCmVCZSRALJkFG352ls6CqqW5+mMTH2KHb+Kp5MXd3h75z47yEyVHVVRp7emYvoj0TBG+4mPwe7uvu5uolbzElatAYX4suxn+vn/9TKuAqrlowPYfpN1znk+OulFku2geIMB6NFob3DHcCoTNty3Odi2zu2fORRT1P74yU+1Go6gIa+hBqX/39noUbLS3d1dBeIQJVOvIh7HAe87ZjzBOAdpzS7Wjejv3N4JRhlH4v/W6R4up0r5x0FqSW9PnqhVDtC3pk3gc6dVIBs9+ouVBdFUopU7W7vTcdTv2Iqvie7kTE9J0YsAxT0pVCn/hkowLVSr1u3H1w1QyCpjPVog3Z6o3J3lTvdRj5OG0ZCanYeMBogS7efmTCdfUKJKk59giLXaP2i5plWJz9c7ZbQoL1qdZsyo5+7uYFsoj532icp91sNEyvK6ky+D0Octwlqej2eCbaXjrvTWLxpqlSbukQolbACpqyaKQ8vPW1RZU92meNGRLBKfGaN5r0Thk2f9zY6j74tV7gokitZSeA96gxOWaNJDkWjlrGeTYjI5ScBqSj8A1Cfaf7oCCmllZo/e9I/+fHXaU/XpnPkP9uBHiV8pXf3OkxZu7pMFFDdFugN7VmehSun7hQYraV3BDDCHzUrpRCL1BhSfyECPklVtb+/My+Z8FuqTMpRGidKbIoOVs16gQU1+50y5crqcpxN52VLn06S3M7VYMtCjK97sZ7wyNVrqj5j4Km28E9fS7PuJ7lSsPmmeoCWVZK5/+5Ml43+SqVUq92ZeueIGtLHwO6ZfdbIH4mj2lZaRT8cPYwDF15Tq0bzsWCL1u4MpWvCkksZ7vGiS/sq2lpLugs+/reKgJxzFdaJobU+pfsU7NTMJXJ6SYq8ITZpmwwDF55Tq0VWfKlIY2gpd17eR+r12p/O4W0LwzGeoPmnCUNGnskSFqXeW9rQ/XVF2nVaqVPhuPkz1K07JQBaGAbL4DSuW3kDAxSFpzmLIC+4sJgMPcABK/OZVZiyWu0R/GQkovqhUj7pu7cT6oHnjcgKgifpdIP2MgqEvWzO4P9jmm3yPq2JqBo+Y8tbPassyWlFMfSYUjcFB52e4PZwfgMIABaDO+U/EDNBsRUiUKKeolL7A7e/efKvSm816n/GAQhKKGH30fSy3nDCWzSrA9OmCAYr/NOfJd7Dj3syufue/obC1xN9PApFuNJ5YJ79IX9JF85/kBFCIRRGjKz4NYna51Q8C6LAOx4ILWP+XSnqPUud3aAd96vvJVVf5QOOfwz3b0t9psjtg2r7nLzK4iudlkJ5R9C0xAWJ9W/pA/zs7vMl54nVsVbEGgKKiz+5A4+mr262lSgHoZ9UZL8iYnXgkn0rP6AufBKw+VJQ04cd+6zzhOkkRZBGZTUVPP+Pwhvu/GWx42SqY5hxQiC09o2T9JitX9ATQCRucC36lXn3yNGdT0fMPu8p7t/3GEjW+GQBNzyip6K18xACdt1xlC0koA9KiV3m4/eav8U0CKCSdRo9auqInNujor5yaAgqRpRlEogxf1Ph93zxs2hrfPICmZ/T+z6zaoiet+Lpm5zG3aahBY/hl5BaVQ5Zr42POkwkxBaCvlTm1mnksJwDl8an0KFz30V5Ltuipmwn9nBraoFSmGlT0fOEQr/71uvaO8p9SHqCAKtmyW/k7Vd6ZitGXNwSs6LrnhjJFHXOWqRSN5OOkotf06NpwqXlUqQkBhbBTMbr6a0x01LRAjHlZyOM8/hG2Rp+ko6IXjE9TmyHOFWUSw9ScgKZh9J3t1uujJ33xGEs/6l3Na3kIS8uKnqebM0xz7jEFoI96Iqaq4nkJySob4nUS7ATLP2DmADFDa3eSyR5ZjbVLm7XsXfepX+3259ZjSgG9YGR16mTm6qosox98E7Ji95Jj1rU6AYoSUuW6T13Cbn/nxktS36LTVZMDilzLMmo5Y5TU8oe9opcZqlNFn8wd2k/JEbqfmR/QVIy+02ilEc1oy2MtO3byM3qYoQlSNGwtJV4aD6H9NLjLSEwB6G/YgGmr+LhcZPQoPKNMyFKe0ZAHy9mROce6HcTrpIn3PkUKKaa77zbAG0UBVb8QeIrcaHVJuq5ft91KxiiUKBZuIOstKlhTJHvBaet1kksHMN3xZueW+3XF1EKAQk7SjL66yVKe0RAmJ72lqxLVxeskh6mrPNz8YufO5Tphai1AZRn961ZLrejkCpC5H7oqUSIqA2fLAFNo053L5TDOOt5ygEozivVILDTwnvhER25n3J1ZF5uSB4lnVG9jVJQOYLrrfW2bUFYEVJrRHa1hkbhMfRqKOvb5TNeKHtknSzcaqUepxAUtfU3q/YsGui3RSBLxJmGPWsx77/Ay5RL7IIryqfbUYCXKJ5fDtH3tyepH8Z3W16X5KuB8MnUNSDC6vjEs05TSNSUqXl6ELRCGrqah4oXJjxraYEr+NDnDP6HD2/3FMjV9+tYFlAhgqExWbrdUgwkZGPCRlep1PYyv6EXZQZ/+9ns7/3NRpL8x03rf0oBCDGJGsfaY9cY19+k7GCIHDSYRoPQUrajBXZ0bFlOFqpxUi1bxvAzEjH65O2Sx4U6OQGTTHMYhsRMSn0mVgdw0mCQTjXof00o5hZrWQgXE0KAGrGErmVINI8WMbm2JWGu4E+ZVR5v2iX5zvI7Vfa4aTHLlDIUa3AsLFVV/qPMz3AUchWqVngLiym4t1+aVS47e8eKZ8xt2SeyPoXci1L4/OLik48d7vA0rBzfp2nhSm05tn3f7CalfXoUWlbP6uKKScfyifAB3oOlv2HznTu6Lvz5kqbZfNvht4rUdLbdtCCYo/3Km574zyJKZZ357neaYolGfaksGg4tL7nORQQY/6M+gByoXzhtAzkJd59Qd8+R3b4ldsuAfcV1vrX1tAOhpk9wUUAj/mTHLT/VO0rHSN20Bc3Yq4/bHflzlhFF6uMqfalz94/duMG3a0yYsiVE06q3UC8oB+txismYxfwDTJd55GmOac8cTn73sAhbHNInRpi7sfG2NA9UaNKgIUJr0e8cs0RBTszieVBaLlTFNYpQMG7XCQQCd4JIEVA9MrSASBWm0LKZJjDZ2WsDxBEDn1jlSACrENBRuU1B6BXOLNTFNYtT8PfUU0Ld/Id4+XpIyVPpLfSeoxNREDnzJTGYayWH6vdW5mYOaaWLp/UmMtvSa2h7NCFCaPWB6Q8XpKjHNTrLmfcpV/lbnFxbCNInRd5rMOxcUgLqrXQo1qJCPm/dZbGMqFAgJO7wWwjTBKHE89Zt0LigFNHB5kptJLHf5cxtTCdlwmLpePlviksmiEoya1vEEQJ0ljqwBpQK3MZUAjxtAbX5ME4y29URMOOIJ85IBaOh6RY0kiWIQRNmYCoQRD1oB0wSjZMSTyQ4CaJE2gNKcAdMHHedn1IRii11Gz7YzuBRMj2mCUbM5Rymgu5dmaYPKFfTPJ5+RKaZyr8qfeA5T9vkFrUEzduIkGCVtJtMcZOkRBwNAa3yJFGqVOmD68sjrM9KmWn3avO/BGJTIYPVLCxv69potkQkCNjSZZaodBXTPVRV6AEoL4AT/HIWYOnyeHMxazgkmZKhUYNTfzzYbpglG3+skqivnhwGAZoppntujwiLntKnZME1QGQnkvq4HoDh01aDCElGuTYVP5XnYfJjGGCXTQXNtLlNAt15Wrl8VPxSvtJiSPXAL7aCYvnq6SSr9hB5lBnPdyRSIAtBx1Uavwg9MP6q9x25CJf0nAlOHd5Q5MI0xSjqZjGYjSSbQ4luvrjAeUJqImcMnp8CULXUXkEkqLBZg+sqJOdemMUZJJ1PuDqw68ekSX64ATYspadoX7OEqB6br9n6RQwHEGM1hJxPmzX16efkB9eJZ1MYLRU6bFqJJKpS+q/yQt87NIaYCe9Rl4BqwcREQDbrUFIDSFMlhWigu0ni5iP+6/TnENMYo6Qg1/CCAmkODCrNOMRXNLCW99gV+5A7TGKPGd4QC0HcuLjNDFT+UPWD6r8pbhZg6x1YUaLNJKJ0cYRpjtKEHW7UKk6NvmAJ61H7mbYsA0+2jfp8kBavPsk/KTLYnucA0BuZLHdkmOvPnzA8ozVN9yfDtY1bw+XPWlNiqlEjDcExjjEb6DJrJZBVAh2JKWve2KqVyMRbTGKPhPiPaTNYCdCimtiqlMiG/OUxfafsgEaNbKG6E6t8RCkAfO7XEzDaonJD5St9WpUkicvsXrV5qAKaEUQMa9RTQ8+fouJ9nkvi0PgGmeyY8ibfaqjRJtBymj27WdyXeuB5N+rLGJ1YHlIqjyu0K7v80VGnhdt9LcuH2X/jJ7bpiShjVddZyfgDKlw4w5brvA3yMHYBtqiumcT2qz6CnPAOU4hg64gXnuGlk3WT74CXAYfrbL57lIzQMEEZ1GvQEQJcfXWRdGzSFlEMzVji9o2xMk0Tk9i/ZeNe9Gx5PitTiJK5HtXiX8B0U0P9eWCKMzKdwaNGf51dMtjFNKlO3f9mm32qOKWFU84F5eQ8oLZg3j3mIYBrqSiqnAj/RAdO4HtVuYB7Gg6KKz2MNKoQQmGLXDhtToUzQhII2vfqj+5IiVZzEGVXxCuGjdCeaAgGUZhzbyhBMg/aC0QIQ3P47t/5FK0wJo1oNHqWA8jvRCJKc50Fg+uABV9iYJhWzdphqpkcLFlBaMFif56P5T5BK3/ZJ8agC023PqtemhFH1faEFDigtFAw53XXC34hPym5F8Zi6yoGpyh3MNNCjAFS42RyfvAIMoFsfPql79rvYrvcTpa96MxPCqJpB+BTQtDvRJFJcAKHLpp1H6n3s1mwrVFrc6jAljGa9nQgWbpDbbK4AUEyVRdT70dNef3DqUqJQbQsVolKBafZ1PQBVspdXqpLM92toSO1a9Oo5tUfapJKiBqZN72ax5w7ZGzyL/cApoFnsRJPvWErnDwsoXP3Jg2+1fQT/tvQdhRMb6ppfeTD6PpTnOBtGbUCVy1d4J0id/e/bw32bGWdpYu9u4R0FEo4Mog9ZOaakrs9owp0NaNYgwUhFqx/NKdLLX8h2aoY7mBE96rq1U+ECuQAUm82p3Cop6zLOpwexGN21Hz/w1O7XGNYFQy2fsqY0L4q1aQaM2oAqlb7i+7CPx4tbX774q5UFagBEBtHlgboltcCUMmoDmlqOKq/CVH1u++t3fvsicVRx69OqfKFlHucwbTr2cUwXk0szYdRxfbvcZRqPVcC13csr9ecK+SpgvX/TMzEboEBg5f4tWxatksM0PaMU0KZrSuVeUchI6Zf3mGbd+RppXcFmzW9eOUx3HftndCYPFWkaRimgOu3lNTQ1dsxQCQDWD/dufL5hDXGv4oDfCgeQzbNDHlPCKHtdu+TOTAAU8YbtRJNnMtcjO+D1vd1rX2le+1b7egZNhDzTrzKYcoxe247Mig4bUJFAzHZK9euHrZ+jg5EJ98Z4RSotrWKlMGVbAsHqG7pFjAJQHE3X6LgbotmK3NLpgbe1sXcvVOz6rq1P7f2QmLA4qJZFwFrUAlOG2bXwOd42ZZu6wrW3dLBFicXwbUBJAVv5gNt1W8dXG9o2f9X17bqOr97q/oaMEqS2AfJFkTUzuMmYihklgEaYrZfnYC8vK1Nh9rTTPZbWD3zVtLc5AS6vbnlwhYGc5ykySLUpx+iNHWxpTI/in80GNOelY1gCqJEAjds10Lkn0AGlu2agKzzYjA2YSW8CaMBBDUGh3hWG9UtrvLPURTbn9LK0fmewG2LuNpvTL7P2m+UkAJsPPxjsMvQGqnph5u5xtkP7DoQDO3obGweIpft0x9ZwcG/M6hU9KWrZSNIsGSl6j+CUtOs3NoRmPNM/xx157Idlud1sTpAwO2gNCVCUkVbQTFNMmUYYWAeC/VDP5OpAW8NAC70BqpoGiMKmy7dzBmhswgJV3rjDWfrRUQ/h/4cwSh+wf9sSyK0E0NTjEzAQbOfb9f8PtORrFDvtArMAAAAASUVORK5CYII=;" vertex="1" parent="1">
          <mxGeometry x="-620" y="1225.5" width="109" height="109" as="geometry" />
        </mxCell>
        <mxCell id="3H0iRvBN5fyzFn5Ot1tH-112" value="Apache&amp;nbsp;&lt;div&gt;Airflow&lt;/div&gt;" style="text;html=1;align=center;verticalAlign=middle;resizable=0;points=[];autosize=1;strokeColor=none;fillColor=none;fontSize=16;" vertex="1" parent="1">
          <mxGeometry x="-605.5" y="1334.5" width="80" height="50" as="geometry" />
        </mxCell>
        <mxCell id="3H0iRvBN5fyzFn5Ot1tH-113" style="edgeStyle=orthogonalEdgeStyle;rounded=0;orthogonalLoop=1;jettySize=auto;html=1;exitX=1;exitY=0.5;exitDx=0;exitDy=0;entryX=0.002;entryY=0.774;entryDx=0;entryDy=0;entryPerimeter=0;" edge="1" parent="1" source="3H0iRvBN5fyzFn5Ot1tH-110" target="3H0iRvBN5fyzFn5Ot1tH-99">
          <mxGeometry relative="1" as="geometry" />
        </mxCell>
        <mxCell id="3H0iRvBN5fyzFn5Ot1tH-114" value="trigger main job" style="text;html=1;align=center;verticalAlign=middle;resizable=0;points=[];autosize=1;strokeColor=none;fillColor=none;fontSize=16;" vertex="1" parent="1">
          <mxGeometry x="-435" y="1250" width="130" height="30" as="geometry" />
        </mxCell>
      </root>
    </mxGraphModel>
  </diagram>
</mxfile>
